<svg id="Camada_1" data-name="Camada 1" xmlns="http://www.w3.org/2000/svg" viewBox="0 0 401 96"><defs><style>.cls-1{fill:#fca311;}.cls-2{opacity:0.2;isolation:isolate;}.cls-3{fill:#7a4d0a;}</style></defs><rect class="cls-1" width="401" height="96" rx="25.35"/><path class="cls-2" d="M44.52,40C36.27,50.54,24.68,54.84,18.41,50.24S13.89,32.9,22.12,22.4,41.87,7.48,48.23,12.17C54.43,17,52.79,29.44,44.52,40Z" transform="translate(0.22 -0.07)"/><path class="cls-3" d="M123.4,11.79A42.79,42.79,0,0,0,127.85.07H93.13L86.22,6c-8,6.84-16.64,15-16.72,25.56-.06,7.33,4.16,13.91,6.38,20.89a39.77,39.77,0,0,1-2.58,30,39.2,39.2,0,0,1-11.78,13.6h42a63.78,63.78,0,0,0,6.85-6.31c8.57-9.2,14.08-22,12-34.36-1.42-8.72-6.42-16.91-5.8-25.73C117.07,23.26,120.44,17.49,123.4,11.79ZM109.07,58.35c-4.54,6.26-11.48,9-15.5,6.06S90,54.05,94.49,47.79s11.48-9,15.5-6.06S113.6,52.09,109.07,58.35Z" transform="translate(0.22 -0.07)"/><path class="cls-3" d="M337.07,82.47a39.77,39.77,0,0,1-2.58-30c2.22-7,6.44-13.56,6.38-20.89C340.79,21,332.14,12.83,324.15,6L317.24.07H282.52A42.79,42.79,0,0,0,287,11.79c3,5.7,6.33,11.47,6.78,17.88.62,8.82-4.38,17-5.8,25.73-2,12.41,3.48,25.16,12.05,34.36a63.78,63.78,0,0,0,6.85,6.31h42A39.2,39.2,0,0,1,337.07,82.47ZM327.53,88c-3.88,3.11-10.95.73-15.78-5.31s-5.6-13.44-1.72-16.55,11-.73,15.78,5.31S331.41,84.89,327.53,88Z" transform="translate(0.22 -0.07)"/><path class="cls-2" d="M245.17,4.23c-.43,3.88-3.27,7-5.35,10.3-5.23,8.33-5.89,18.6-7.39,28.32S227.91,63,219.86,68.62c-3,2.09-6.43,3.35-9.65,5s-6.38,3.87-8,7.12S201,88.48,204,90.61c1.87,1.36,4.33,1.53,6.64,1.66l18.11,1q-1.08,1.45-2.28,2.82H157.31a15.38,15.38,0,0,1-2.51-5.85c-1.1-5.84,1.84-11.73,5.69-16.24s8.66-8.16,12.43-12.74c10.58-12.89,11-33.07,1-46.39-2-2.68-4.4-5.11-6.06-8A18.44,18.44,0,0,1,165.6.07h79.07A9.46,9.46,0,0,1,245.17,4.23Z" transform="translate(0.22 -0.07)"/><ellipse class="cls-3" cx="367.78" cy="73.07" rx="14" ry="9" transform="matrix(0.59, -0.81, 0.81, 0.59, 93.05, 327.96)"/><path class="cls-3" d="M22.12,22.4C30.35,11.91,41.87,7.48,48.23,12.17,54.43,17,52.79,29.44,44.52,40S24.68,54.84,18.41,50.24,13.89,32.9,22.12,22.4Z" transform="translate(0.22 -0.07)"/></svg>