<svg id="Camada_1" data-name="Camada 1" xmlns="http://www.w3.org/2000/svg" viewBox="0 0 187 96"><defs><style>.cls-1{fill:#fca311;}.cls-2{fill:#7a4d0a;}.cls-3{opacity:0.2;isolation:isolate;}</style></defs><path class="cls-1" d="M186.5,25.35v45.3a25.21,25.21,0,0,1-2.24,10.43,25.61,25.61,0,0,1-5.9,8.19A25.31,25.31,0,0,1,161.15,96H24.85l-1,0A25.35,25.35,0,0,1-.5,70.65V25.35A25.35,25.35,0,0,1,24.85,0h136.3A25.35,25.35,0,0,1,186.5,25.35Z" transform="translate(0.5 0)"/><path class="cls-2" d="M43.7,11.72A42.79,42.79,0,0,0,48.15,0H24.85A25.35,25.35,0,0,0-.5,25.35v45.3A25.35,25.35,0,0,0,23.85,96a64.34,64.34,0,0,0,6.82-6.29c8.57-9.2,14.08-22,12-34.36-1.42-8.72-6.42-16.91-5.8-25.73C37.37,23.19,40.74,17.42,43.7,11.72ZM29.37,58.28c-4.54,6.26-11.48,9-15.5,6.06S10.26,54,14.79,47.72s11.48-9,15.5-6.06S33.9,52,29.37,58.28Z" transform="translate(0.5 0)"/><path class="cls-2" d="M161.15,0H136.82a42.79,42.79,0,0,0,4.45,11.72c3,5.7,6.33,11.47,6.78,17.88.62,8.82-4.38,17-5.8,25.73-2,12.41,3.48,25.16,12.05,34.36A63.78,63.78,0,0,0,161.15,96a25.31,25.31,0,0,0,17.21-6.73c-3.84.33-8.7-2.14-12.31-6.65-4.83-6-5.6-13.44-1.72-16.55s10.95-.73,15.78,5.31a18.18,18.18,0,0,1,4.15,9.7,25.21,25.21,0,0,0,2.24-10.43V25.35A25.35,25.35,0,0,0,161.15,0Z" transform="translate(0.5 0)"/><path class="cls-3" d="M131.47,4.16c-.43,3.88-3.27,7-5.35,10.3-5.23,8.33-5.89,18.6-7.39,28.32s-4.52,20.13-12.57,25.77c-3,2.09-6.43,3.35-9.65,5s-6.38,3.87-8,7.12-1.2,7.73,1.75,9.86c1.87,1.36,4.33,1.53,6.64,1.66l18.11,1q-1.08,1.45-2.28,2.82H43.61a15.38,15.38,0,0,1-2.51-5.85c-1.1-5.84,1.84-11.73,5.69-16.24s8.66-8.16,12.43-12.74c10.58-12.89,11-33.07,1-46.39-2-2.68-4.4-5.11-6.06-8A18.44,18.44,0,0,1,51.9,0H131A9.46,9.46,0,0,1,131.47,4.16Z" transform="translate(0.5 0)"/><ellipse class="cls-2" cx="126.08" cy="75" rx="14" ry="9" transform="matrix(0.59, -0.81, 0.81, 0.59, -8.13, 133.1)"/></svg>