<svg id="Camada_1" data-name="Camada 1" xmlns="http://www.w3.org/2000/svg" viewBox="0 0 105 105"><defs><style>.cls-1,.cls-3{fill:#407bff;}.cls-2{fill:#fca311;}.cls-3,.cls-4{opacity:0.2;isolation:isolate;}.cls-5{fill:#7a4d0a;}</style></defs><circle class="cls-1" cx="52.5" cy="52.5" r="52.49"/><circle class="cls-2" cx="52.5" cy="52.5" r="52.49"/><path class="cls-3" d="M82,9.09C80.76,16,75.84,22.41,73.15,29.91c-3.34,9.31,4.51,15.26-3.23,30.6s-16.87,14.3-22,21.66c-3.55,5.08-10.63,14.14-14.62,19.22a52.56,52.56,0,0,0,27.22,3C66.27,97.59,77.16,87.72,75,86.53c-3.2-1.76-10.91,8.91-14.45,7s2.78-6.2,17.07-16.53S90.89,47.49,91.93,37.41A25.1,25.1,0,0,1,97,24.68,52.09,52.09,0,0,0,82,9.09Z" transform="translate(0)"/><path class="cls-4" d="M82,9.09C80.76,16,75.84,22.41,73.15,29.91c-3.34,9.31,4.51,15.26-3.23,30.6s-16.87,14.3-22,21.66c-3.55,5.08-10.63,14.14-14.62,19.22a52.56,52.56,0,0,0,27.22,3C66.27,97.59,77.16,87.72,75,86.53c-3.2-1.76-10.91,8.91-14.45,7s2.78-6.2,17.07-16.53S90.89,47.49,91.93,37.41A25.1,25.1,0,0,1,97,24.68,52.09,52.09,0,0,0,82,9.09Z" transform="translate(0)"/><path class="cls-4" d="M22,44.71c1.93.36,3,3.3,2.36,6.58s-2.69,5.55-4.61,5.24-3-3.31-2.36-6.57S20,44.39,22,44.71Z" transform="translate(0)"/><path class="cls-5" d="M56.2.14c-7.36,19.5-18,13.88-24.12,28.48-6.34,15.05,8,15.08-4.16,34.2C19.45,76.12,13.4,81.78,10.5,84A51.86,51.86,0,0,0,20.69,94.26c2.66-1.85,7.67-6.16,13.87-15.56,9.36-14.08,12.94-7,21.66-19.85s-1.48-22.33,4.57-34.69c3.44-7,7.48-14.55,9.56-20.94A52.82,52.82,0,0,0,56.2.14ZM50.08,43.23c-.91,4.76-3.9,8.17-6.71,7.64S39,46.06,40,41.3s3.91-8.16,6.71-7.63S51,38.48,50.08,43.23Z" transform="translate(0)"/><path class="cls-5" d="M88.61,74.25c1.62,1.1,1.39,4.16-.43,6.94s-4.68,4.16-6.3,3-1.39-4.16.43-6.94S87,73.15,88.61,74.25Z" transform="translate(0)"/></svg>