<?xml version="1.0" encoding="utf-8"?>
<!-- Generator: Adobe Illustrator 25.0.0, SVG Export Plug-In . SVG Version: 6.00 Build 0)  -->
<svg version="1.1" id="Camada_1" xmlns="http://www.w3.org/2000/svg" xmlns:xlink="http://www.w3.org/1999/xlink" x="0px" y="0px"
	 viewBox="0 0 500 500" style="enable-background:new 0 0 500 500;" xml:space="preserve">
<style type="text/css">
	.st0{fill:#FCA311;}
	.st1{fill:#407BFF;}
	.st2{opacity:0.2;fill:#407BFF;enable-background:new    ;}
	.st3{opacity:0.2;enable-background:new    ;}
	.st4{fill:#7A4D0A;}
	.st5{fill:#772A08;}
	.st6{fill:#2F1E59;}
	.st7{opacity:0.5;fill:#FFFFFF;enable-background:new    ;}
	.st8{fill:#263238;}
	.st9{opacity:0.1;enable-background:new    ;}
	.st10{opacity:0.4;}
	.st11{fill:#FFFFFF;}
	.st12{opacity:0.2;}
	.st13{opacity:4.000000e-02;fill:#FFFFFF;enable-background:new    ;}
	.st14{opacity:0.2;fill:#FFFFFF;enable-background:new    ;}
	.st15{opacity:0.2;fill:#FCA311;enable-background:new    ;}
	.st16{opacity:0.5;}
	.st17{fill:#B26C10;}
	.st18{fill:#43318C;}
	.st19{opacity:0.3;fill:#FFFFFF;enable-background:new    ;}
	.st20{fill:#EC9700;}
	.st21{fill:#875300;}
	.st22{opacity:0.3;enable-background:new    ;}
	.st23{opacity:0.3;fill:#407BFF;enable-background:new    ;}
	.st24{fill:#FFD60A;}
	.st25{fill:#C9751B;}
	.st26{opacity:0.5;fill:#FCA311;enable-background:new    ;}
</style>
<g>
	<g id="Estrelas">
		<g>
			<polygon class="st0" points="139.2,243 142.4,241.3 141.9,244.8 144.4,247.3 140.9,247.8 139.2,251 137.8,247.8 134.2,247.3 
				136.8,244.8 136.2,241.3 			"/>
			<polygon class="st0" points="148.9,108.6 153.4,106.2 152.4,111.2 156.2,114.8 151.1,115.6 148.9,120.2 146.6,115.6 141.4,114.8 
				145.2,111.2 144.2,106.2 			"/>
			<polygon class="st0" points="426.4,272.6 435.5,267.9 433.8,278 441.1,285.1 430.9,286.6 426.4,295.8 421.8,286.6 411.8,285.1 
				419,278 417.3,267.9 			"/>
			<polygon class="st0" points="349.9,107.2 355.9,104 354.8,110.6 359.5,115.3 352.9,116.3 349.9,122.3 346.9,116.3 340.3,115.3 
				345.1,110.6 344,104 			"/>
			<polygon class="st0" points="63.8,210.8 67,209.1 66.4,212.6 68.9,215.1 65.4,215.6 63.8,218.8 62.3,215.6 58.8,215.1 
				61.3,212.6 60.8,209.1 			"/>
			<polygon class="st0" points="102.8,170.3 106,168.7 105.4,172.2 107.9,174.6 104.4,175.2 102.8,178.3 101.3,175.2 97.8,174.6 
				100.3,172.2 99.7,168.7 			"/>
			<polygon class="st0" points="403.4,139.4 406.5,137.7 405.9,141.2 408.5,143.7 405,144.2 403.4,147.4 401.8,144.2 398.3,143.7 
				400.9,141.2 400.3,137.7 			"/>
			<polygon class="st0" points="330,158.3 333.1,156.6 332.5,160.1 335,162.6 331.5,163.1 330,166.3 328.4,163.1 324.9,162.6 
				327.4,160.1 326.8,156.6 			"/>
			<polygon class="st0" points="333.4,141.6 331.6,142.6 331.9,140.5 330.4,139.1 332.5,138.8 333.4,136.9 334.3,138.8 336.4,139.1 
				334.9,140.5 335.2,142.6 			"/>
			<polygon class="st0" points="220.4,127.6 218.7,128.5 218.9,126.5 217.4,125.1 219.6,124.7 220.4,122.9 221.4,124.7 223.4,125.1 
				221.9,126.5 222.2,128.5 			"/>
			<polygon class="st0" points="398.2,199.4 401.4,197.8 400.8,201.3 403.3,203.8 399.8,204.3 398.2,207.4 396.6,204.3 393.1,203.8 
				395.8,201.3 395.1,197.8 			"/>
			<polygon class="st0" points="365.4,385.2 368.6,383.6 368,387.1 370.5,389.6 367,390.1 365.4,393.3 363.9,390.1 360.4,389.6 
				362.9,387.1 362.3,383.6 			"/>
			<polygon class="st0" points="294.9,115.5 298.1,113.8 297.5,117.4 300.1,119.9 296.5,120.4 294.9,123.7 293.3,120.4 289.6,119.9 
				292.3,117.4 291.6,113.8 			"/>
			<polygon class="st0" points="69.8,288.1 72.9,286.4 72.3,289.9 74.9,292.4 71.4,292.9 69.8,296.1 68.2,292.9 64.7,292.4 
				67.3,289.9 66.7,286.4 			"/>
			<polygon class="st0" points="115.3,305.8 117.4,304.7 117,307 118.7,308.6 116.4,309 115.3,311.1 114.3,309 112,308.6 113.7,307 
				113.3,304.7 			"/>
			<polygon class="st0" points="420.4,337.1 423.5,335.5 422.9,339 425.4,341.5 421.9,342 420.4,345.1 418.8,342 415.3,341.5 
				417.8,339 417.2,335.5 			"/>
			<polygon class="st0" points="314.9,290.1 318,288.5 317.4,292 319.9,294.4 316.4,294.9 314.9,298.1 313.3,294.9 309.8,294.4 
				312.3,292 311.8,288.5 			"/>
		</g>
	</g>
	<g id="Planeta">
		<circle class="st1" cx="152.9" cy="169.1" r="37.8"/>
		<circle class="st0" cx="152.9" cy="169.1" r="37.8"/>
		<path class="st2" d="M174.2,137.8c-0.9,5-4.5,9.6-6.4,15c-2.4,6.7,3.2,11-2.3,22.1s-12.2,10.3-15.9,15.6
			c-2.6,3.7-7.7,10.2-10.5,13.9c6.2,2.4,13,3.2,19.6,2.1c4.1-4.9,12-12,10.4-12.9c-2.3-1.3-7.9,6.4-10.4,5.1s2-4.5,12.3-11.9
			s9.6-21.3,10.3-28.6c0.3-3.3,1.6-6.5,3.6-9.2C182.2,144.6,178.6,140.8,174.2,137.8z"/>
		<path class="st3" d="M174.2,137.8c-0.9,5-4.5,9.6-6.4,15c-2.4,6.7,3.2,11-2.3,22.1s-12.2,10.3-15.9,15.6
			c-2.6,3.7-7.7,10.2-10.5,13.9c6.2,2.4,13,3.2,19.6,2.1c4.1-4.9,12-12,10.4-12.9c-2.3-1.3-7.9,6.4-10.4,5.1s2-4.5,12.3-11.9
			s9.6-21.3,10.3-28.6c0.3-3.3,1.6-6.5,3.6-9.2C182.2,144.6,178.6,140.8,174.2,137.8z"/>
		<path class="st3" d="M130.9,163.5c1.4,0.3,2.1,2.4,1.7,4.7s-1.9,4-3.3,3.8c-1.4-0.2-2.1-2.4-1.7-4.7
			C128.1,165,129.6,163.3,130.9,163.5z"/>
		<path class="st4" d="M155.7,131.4c-5.3,14.1-13,10-17.4,20.5c-4.6,10.9,5.8,10.9-3,24.6c-6.1,9.6-10.5,13.7-12.6,15.3
			c2.1,2.8,4.6,5.3,7.3,7.4c1.9-1.3,5.5-4.4,10-11.2c6.7-10.1,9.3-5.1,15.6-14.3s-1.1-16.1,3.3-25c2.5-5.1,5.4-10.5,6.9-15.1
			C162.6,132.4,159.2,131.6,155.7,131.4z M151.2,162.4c-0.6,3.4-2.8,5.9-4.8,5.5s-3.1-3.5-2.5-6.9s2.8-5.9,4.8-5.5
			S151.9,159,151.2,162.4z"/>
		<path class="st4" d="M178.9,184.8c1.2,0.8,1,3-0.3,5s-3.4,3-4.5,2.2s-1-3,0.3-5S177.9,184,178.9,184.8z"/>
		<path class="st5" d="M183.9,147.5c0.5,0.8,1,1.5,1.5,2.3c0.2,0.3,0.4,0.7,0.6,1.1c4.1-1.4,6.8-1.8,7.4-0.8
			c1.6,2.8-14.2,15.2-35.3,27.8s-39.6,20.4-41.3,17.6c-0.6-1,1-3.2,4.2-6.1c-0.2-0.3-0.4-0.7-0.7-1c-0.5-0.8-0.9-1.6-1.3-2.4
			c-17.3,12.2-27.8,22-26.1,25c2.7,4.6,33-8.4,67.6-28.9s60.5-40.9,57.8-45.5C216.7,133.6,203.1,138.2,183.9,147.5z"/>
	</g>
	<g id="Foguete">
		<path class="st1" d="M299.2,311.5c-11.9,0.7-25.9,83.6-38.9,78.4c-5.5-2.2-10.4-21.2-14.2-42.3l-4.4,1.6
			c2.6,13.4,15.3,70.7,31.1,35.5c17.8-39.6,23.1-100.4,36.1-52.2l1.4-0.7C310.4,331.9,306.6,311,299.2,311.5z"/>
		<path class="st4" d="M299.2,311.5c-11.9,0.7-25.9,83.6-38.9,78.4c-5.5-2.2-10.4-21.2-14.2-42.3l-4.4,1.6
			c2.6,13.4,15.3,70.7,31.1,35.5c17.8-39.6,23.1-100.4,36.1-52.2l1.4-0.7C310.4,331.9,306.6,311,299.2,311.5z"/>
		<g>
			<path class="st6" d="M316.8,324.1c0,0,1.9-13.9,17.4-26.5s26.1-4.1,26.1-4.1l4.1,2.7l0.2,11.6l-5.9,10.3L344,329.7l-15.2,4.3
				l-7.4-3.3L316.8,324.1z"/>
		</g>
		<path class="st7" d="M316.8,324.1c0,0,1.9-13.9,17.4-26.5s26.1-4.1,26.1-4.1l4.1,2.7l0.2,11.6l-5.9,10.3L344,329.7l-15.2,4.3
			l-7.4-3.3L316.8,324.1z"/>
		<path class="st8" d="M282.3,333.8l23.7,10l16.1-10.8l-24-4.7c-5.5-1.1-11.3,0.1-15.9,3.2l0,0c-0.6,0.4-0.8,1.2-0.4,1.8
			C281.8,333.6,282,333.7,282.3,333.8z"/>
		<path class="st8" d="M312.4,378.4l-0.4-25.7l16.1-10.8l-4.6,24c-1.1,5.5-4.3,10.4-9,13.6l0,0c-0.6,0.4-1.4,0.2-1.8-0.4
			C312.4,378.9,312.4,378.6,312.4,378.4z"/>
		<g>
			<path class="st4" d="M282.3,333.8l23.7,10l16.1-10.8l-24-4.7c-5.5-1.1-11.3,0.1-15.9,3.2l0,0c-0.6,0.4-0.8,1.2-0.4,1.8
				C281.8,333.6,282,333.7,282.3,333.8z"/>
			<path class="st4" d="M312.4,378.4l-0.4-25.7l16.1-10.8l-4.6,24c-1.1,5.5-4.3,10.4-9,13.6l0,0c-0.6,0.4-1.4,0.2-1.8-0.4
				C312.4,378.9,312.4,378.6,312.4,378.4z"/>
		</g>
		<path class="st8" d="M390.9,290.4c-9.1-1.1-18.4-0.4-27.2,2.1l1.8,9.5l-0.9,5.9l-9.2,13l-9.5,6.4l-13.4,5.3l-11-1.8l-7.4-4.4
			c-5.2,4.8-10.3,9.9-15,14.9c1.8,3.2,3.8,6.3,6,9.5s4.3,6.2,6.6,9.1c20.5-7.8,44.2-20.4,53.7-26.8c13.7-9.2,23.6-23.1,27.9-39.1
			c0.4-1.6-0.5-3.1-2.1-3.5C391.1,290.4,391,290.4,390.9,290.4z"/>
		<path class="st0" d="M390.9,290.4c-9.1-1.1-18.4-0.4-27.2,2.1l1.8,9.5l-0.9,5.9l-9.2,13l-9.5,6.4l-13.4,5.3l-11-1.8l-7.4-4.4
			c-5.2,4.8-10.3,9.9-15,14.9c1.8,3.2,3.8,6.3,6,9.5s4.3,6.2,6.6,9.1c20.5-7.8,44.2-20.4,53.7-26.8c13.7-9.2,23.6-23.1,27.9-39.1
			c0.4-1.6-0.5-3.1-2.1-3.5C391.1,290.4,391,290.4,390.9,290.4z"/>
		<path class="st8" d="M305.1,350.9c-2-2.9-3.8-5.8-5.5-8.8c-1.6,1.7-3.3,3.3-4.8,5c1.5,2.5,3,5,4.7,7.5s3.4,4.9,5.2,7.2
			c2.1-0.8,4.3-1.7,6.4-2.6C309.1,356.6,307.1,353.8,305.1,350.9z"/>
		<path class="st9" d="M392.4,292.7c-8.5,8.9-20.7,19-35,28.7c-9.3,6.3-31,20.1-49.1,30.9c-0.7,0.4-0.9,1.3-0.5,1.9c0,0,0,0,0,0.1
			l1.6,2.4c0.4,0.6,1.1,0.8,1.8,0.5c19.6-8.9,42.2-21.6,51.5-28c13.9-9.4,24.1-21.7,29.8-34.6C392.8,293.9,392.8,293.2,392.4,292.7
			L392.4,292.7z"/>
		<g class="st10">
			<path class="st11" d="M317.5,328.5c-5.5,4.7-11,9.6-16,14.4c-0.6,0.5-0.6,1.5-0.1,2s1.5,0.6,2,0.1l0,0
				c5.6-4.8,11.6-9.7,17.6-14.4L317.5,328.5z"/>
			<path class="st11" d="M364.4,296.3l0.8,4c8.3-4.2,17.2-7.3,26.3-9.1l-0.3-0.5C382,291.1,372.9,292.9,364.4,296.3z"/>
		</g>
		<path class="st8" d="M365.3,292.1c-1.7,0.4-3.4,0.9-5,1.5c2.2,5.2,2.8,9.7,1.9,13.7c-1.4,5.8-6.2,11.1-14.6,16.4s-15.3,7.2-21.1,6
			c-3.7-0.9-7.1-2.9-9.7-5.6c-1.3,1.2-2.6,2.3-3.8,3.5c10.1,10.1,22,10.2,37.4,0.5C366.5,318,371.3,306.7,365.3,292.1z"/>
		<path class="st8" d="M365.3,292.1c-1.7,0.4-3.4,0.9-5,1.5c2.2,5.2,2.8,9.7,1.9,13.7c-1.4,5.8-6.2,11.1-14.6,16.4s-15.3,7.2-21.1,6
			c-3.7-0.9-7.1-2.9-9.7-5.6c-1.3,1.2-2.6,2.3-3.8,3.5c10.1,10.1,22,10.2,37.4,0.5C366.5,318,371.3,306.7,365.3,292.1z"/>
		<g class="st12">
			<path d="M325.1,331c0.4,0.6,0.2,1.5-0.4,1.9s-1.5,0.2-1.9-0.4s-0.2-1.5,0.4-1.9l0,0C323.9,330.2,324.8,330.4,325.1,331z"/>
			<path d="M339.6,330.6c0.4,0.6,0.2,1.5-0.4,1.9s-1.5,0.2-1.9-0.4s-0.2-1.5,0.4-1.9C338.4,329.7,339.2,329.9,339.6,330.6
				L339.6,330.6z"/>
			<path d="M353.3,323c0.4,0.6,0.2,1.5-0.4,1.9s-1.5,0.2-1.9-0.4s-0.2-1.5,0.4-1.9C352.1,322.2,352.9,322.4,353.3,323L353.3,323z"/>
			<path d="M363.5,312.9c0.4,0.6,0.2,1.5-0.4,1.9s-1.5,0.2-1.9-0.4s-0.2-1.5,0.4-1.9l0,0C362.3,312,363.1,312.2,363.5,312.9
				L363.5,312.9z"/>
			<path d="M365.8,298.3c0.4,0.6,0.2,1.5-0.4,1.9s-1.5,0.2-1.9-0.4s-0.2-1.5,0.4-1.9S365.4,297.7,365.8,298.3L365.8,298.3z"/>
		</g>
		<path class="st4" d="M368.1,291.4c3.9,8.6,9.2,16.4,15.7,23.3c4.3-6.3,7.5-13.3,9.5-20.7c0.4-1.6-0.5-3.1-2.1-3.6
			c-0.1,0-0.2-0.1-0.4-0.1C383.3,289.5,375.6,289.8,368.1,291.4z"/>
		<path class="st8" d="M320.1,340.8c1.1,1.6-4,7-5.6,8.1S294,360.8,293,359.1s15.9-15,17.6-16.1S319,339.1,320.1,340.8z"/>
		<path class="st4" d="M320.1,340.8c1.1,1.6-4,7-5.6,8.1S294,360.8,293,359.1s15.9-15,17.6-16.1S319,339.1,320.1,340.8z"/>
		<path class="st7" d="M344,295.3c-3.2,1.1-6.1,2.7-8.7,4.9c-12.8,10.4-14.4,21.8-14.4,21.8l1.1,1.6c1.2-4.1,4.8-12.9,14.9-21.1
			c2.4-2,5.2-3.7,8.1-4.8L344,295.3z"/>
		<path class="st7" d="M349.3,294.5l0.5,2c2.3-0.3,4.6-0.1,6.9,0.6l-0.1-0.6C354.4,295.2,351.9,294.5,349.3,294.5z"/>
	</g>
	<g id="Gato">
		<g>
			<g>
				<g>
					<path class="st4" d="M209.2,279.7c-3.8-5.7-7.8-7.8-6.1-27.4S183.9,228.4,177,235s-1.2,18.7,12.4,20.4c0,0-11.9,57.6,16.5,45
						C210.4,298.5,215.2,288.5,209.2,279.7z"/>
					<path class="st13" d="M209.2,279.7c-3.8-5.7-7.8-7.8-6.1-27.4S183.9,228.4,177,235s-1.2,18.7,12.4,20.4c0,0-11.9,57.6,16.5,45
						C210.4,298.5,215.2,288.5,209.2,279.7z"/>
				</g>
				<g>
					<path class="st0" d="M189.2,253c-3.3-0.4-14.9-5.9-6.3-11.9S202.9,254.5,189.2,253z"/>
					<path class="st0" d="M189.2,257.6c6.1,0.4,11.8-3.5,15-8.5c0.8-1.2-1.1-2.3-1.9-1.1c-2.8,4.3-7.8,7.7-13.1,7.4
						C187.7,255.3,187.7,257.5,189.2,257.6L189.2,257.6z"/>
					<path class="st14" d="M189.2,257.6c6.1,0.4,11.8-3.5,15-8.5c0.8-1.2-1.1-2.3-1.9-1.1c-2.8,4.3-7.8,7.7-13.1,7.4
						C187.7,255.3,187.7,257.5,189.2,257.6L189.2,257.6z"/>
					<path class="st14" d="M189.2,253c-3.3-0.4-14.9-5.9-6.3-11.9S202.9,254.5,189.2,253z"/>
				</g>
				<g>
					<path class="st0" d="M177.6,242.6c-0.9-0.1-1.7-0.5-2.3-1.1c-0.1-0.2-0.3-0.3-0.4-0.5c-0.1-0.2,0,0-0.1-0.2
						c-0.1-0.3-0.3-0.5-0.6-0.5c-0.1,0.7-0.2,1.5-0.1,2.2c0.9,1,2.1,1.6,3.4,1.7C178.6,244.2,178.6,242.7,177.6,242.6z"/>
					<path class="st0" d="M180.9,237.7c-0.8-1.3-0.9-2.9-0.3-4.2c0.1-0.2,0.1-0.3,0-0.5c-0.6,0.2-1.1,0.5-1.7,0.8
						c-0.5,1.8-0.2,3.7,1,5.1C180.4,239.5,181.6,238.5,180.9,237.7z"/>
					<g class="st12">
						<path d="M177.6,242.6c-0.9-0.1-1.7-0.5-2.3-1.1c-0.1-0.2-0.3-0.3-0.4-0.5c-0.1-0.2,0,0-0.1-0.2c-0.1-0.3-0.3-0.5-0.6-0.5
							c-0.1,0.7-0.2,1.5-0.1,2.2c0.9,1,2.1,1.6,3.4,1.7C178.6,244.2,178.6,242.7,177.6,242.6z"/>
						<path d="M180.9,237.7c-0.8-1.3-0.9-2.9-0.3-4.2c0.1-0.2,0.1-0.3,0-0.5c-0.6,0.2-1.1,0.5-1.7,0.8c-0.5,1.8-0.2,3.7,1,5.1
							C180.4,239.5,181.6,238.5,180.9,237.7z"/>
					</g>
				</g>
			</g>
			<path class="st9" d="M205.9,300.4c4.4-1.9,9.1-11.9,3.3-20.7c-0.9-1.4-1.8-2.5-2.7-3.8c-4.1,8.1-9.3,15.7-15.3,22.5
				C194.2,302.3,198.8,303.6,205.9,300.4z"/>
		</g>
		<g>
			<g>
				<g>
					<path class="st4" d="M190.4,349.2c2.4-7.2,3.4-49.9-22.5-20.3c0,0,2.3-37.6-14.5-27.8c-18.6,10.8-0.7,18.9-3.9,40.3
						s16.5,6.2,16.5,6.2S177.9,385.4,190.4,349.2z"/>
					<path class="st13" d="M190.4,349.2c2.4-7.2,3.4-49.9-22.5-20.3c0,0,2.3-37.6-14.5-27.8c-18.6,10.8-0.7,18.9-3.9,40.3
						s16.5,6.2,16.5,6.2S177.9,385.4,190.4,349.2z"/>
				</g>
				<g>
					<g>
						<path class="st0" d="M149.6,303.6c-12.1,9.6,2.8,18-0.1,37.7c-0.5,2.5-0.5,5.1,0,7.7c0.3,0.5,9.7,13.9,13.2-20.5
							C166.2,294.8,150.7,303,149.6,303.6z"/>
						<path class="st15" d="M149.6,303.6c-12.1,9.6,2.8,18-0.1,37.7c-0.5,2.5-0.5,5.1,0,7.7c0.3,0.5,9.7,13.9,13.2-20.5
							C166.2,294.8,150.7,303,149.6,303.6z"/>
					</g>
					<g class="st16">
						<path class="st11" d="M148.4,312.3l8-6c0.8-0.6,0-1.9-0.8-1.3l-8,6C146.9,311.6,147.7,312.9,148.4,312.3z"/>
						<path class="st11" d="M149.6,318.7l9.8-6.4c0.8-0.5,0-1.8-0.8-1.3l-9.8,6.4C147.9,317.9,148.8,319.2,149.6,318.7z"/>
						<path class="st11" d="M151.1,325.3l9.8-6.4c0.8-0.5,0.1-1.8-0.8-1.3l-9.8,6.4C149.4,324.6,150.2,325.9,151.1,325.3z"/>
						<path class="st11" d="M152.1,332.5l8.1-5.3c0.8-0.5,0.1-1.8-0.8-1.3l-8.1,5.3C150.4,331.7,151.2,333,152.1,332.5L152.1,332.5z
							"/>
						<path class="st11" d="M152.2,339.3l7.1-4.6c0.8-0.5,0.1-1.8-0.8-1.3l-7.1,4.6C150.6,338.5,151.4,339.8,152.2,339.3
							L152.2,339.3z"/>
						<path class="st11" d="M151.7,346.3l7.1-4.6c0.8-0.5,0-1.8-0.8-1.3l-7.1,4.6C150.1,345.6,150.9,346.9,151.7,346.3L151.7,346.3z
							"/>
					</g>
				</g>
				<g>
					<path class="st0" d="M167.8,327.2c0.2,7.2-1.7,14.6-4,21.4c-0.5,1.4,1.7,2,2.2,0.6c2.4-6.9,4.4-14.6,4.1-22
						C170.1,325.7,167.8,325.7,167.8,327.2L167.8,327.2z"/>
					<g class="st12">
						<path class="st11" d="M167.8,327.2c0.2,7.2-1.7,14.6-4,21.4c-0.5,1.4,1.7,2,2.2,0.6c2.4-6.9,4.4-14.6,4.1-22
							C170.1,325.7,167.8,325.7,167.8,327.2L167.8,327.2z"/>
					</g>
				</g>
			</g>
			<path class="st9" d="M169.4,355.8c4.5,8.6,12.6,17.7,20.9-6.6c1.9-5.6,2.9-33.4-9.4-30.4c-1.4,1.9-2.6,3.8-3.8,5.8
				C173.8,330.4,169.1,343.6,169.4,355.8z"/>
		</g>
		<g>
			<g>
				<path class="st17" d="M259.3,292.6c0,0,24,58.9-37,84.3c-53,22.1-50.9-34.4-44-49c8.1-17.3,33.3-41,33.7-63.7L259.3,292.6z"/>
			</g>
			<path class="st4" d="M187.1,316.2c6.8-0.8,14.3,1,20.5,3.6c18.3,7.7,29.7,25.1,36.6,43c1.4,3.6,7.2,2,5.8-1.6
				c-7.3-19.1-19.3-37.6-38.6-46.2c-7.3-3.3-16.2-5.8-24.3-4.8C183.2,310.6,183.2,316.7,187.1,316.2L187.1,316.2z"/>
		</g>
		<g>
			<g>
				<g>
					<path class="st18" d="M309,244.6c0,26.3-19.6,48.4-45.6,51.6c-2.1,0.3-4.2,0.4-6.4,0.4c-28.7,0-52-23.3-52-52s23.3-52,52-52
						C285.8,192.6,309,215.8,309,244.6L309,244.6z"/>
					<path class="st19" d="M309,244.6c0,26.3-19.6,48.4-45.6,51.6c-2.1,0.3-4.2,0.4-6.4,0.4c-28.7,0-52-23.3-52-52s23.3-52,52-52
						C285.8,192.6,309,215.8,309,244.6L309,244.6z"/>
				</g>
				<g>
					<path class="st6" d="M262.8,291.3c23.6-2.9,41.3-23,41.3-46.7c0-0.3,0-0.7,0-1c-0.1-7.3-6-13.1-13.3-13.3H290
						c-26.1,0-47.3,21.2-47.3,47.3l0,0v0.8c0.1,7.3,6,13.1,13.3,13.3h1C258.9,291.7,260.8,291.5,262.8,291.3z"/>
					<path class="st19" d="M262.8,291.3c23.6-2.9,41.3-23,41.3-46.7c0-0.3,0-0.7,0-1c-0.1-7.3-6-13.1-13.3-13.3H290
						c-26.1,0-47.3,21.2-47.3,47.3l0,0v0.8c0.1,7.3,6,13.1,13.3,13.3h1C258.9,291.7,260.8,291.5,262.8,291.3z"/>
				</g>
			</g>
			<g>
				<path class="st8" d="M261.3,298.7c-0.6-2.1-1.2-4.1-2-6.1L212,264.3c-0.1,2.6-0.4,5.2-1,7.7l7.6,10.9l10.3,8.8l13.9,5l14.2,2.9
					L261.3,298.7z"/>
				<path class="st7" d="M261.3,298.7c-0.6-2.1-1.2-4.1-2-6.1L212,264.3c-0.1,2.6-0.4,5.2-1,7.7l7.6,10.9l10.3,8.8l13.9,5l14.2,2.9
					L261.3,298.7z"/>
			</g>
			<g>
				<g>
					<g>
						<g>
							<path class="st8" d="M250.8,222.8c-0.4,11.2-5.8,20.6-12,21.1s-10.9-8.2-10.5-19.3s12-21.1,12-21.1S251.2,211.6,250.8,222.8z
								"/>
							<path class="st20" d="M250.8,222.8c-0.4,11.2-5.8,20.6-12,21.1s-10.9-8.2-10.5-19.3s12-21.1,12-21.1S251.2,211.6,250.8,222.8
								z"/>
							<path class="st3" d="M244.2,221.4c-0.2,6.5-3.4,12-7,12.3s-6.4-4.8-6.1-11.3s7-12.3,7-12.3S244.6,214.9,244.2,221.4z"/>
						</g>
						<g>
							<path class="st20" d="M276.3,235.2c-8.1,7.5-11.8,17.8-8.2,23c3.6,5.2,13.1,3.2,21.3-4.3s8.2-23,8.2-23
								S284.4,227.7,276.3,235.2z"/>
							<path class="st3" d="M276.3,235.2c-8.1,7.5-11.8,17.8-8.2,23c3.6,5.2,13.1,3.2,21.3-4.3s8.2-23,8.2-23
								S284.4,227.7,276.3,235.2z"/>
							<path class="st3" d="M278.8,237.2c-4.8,4.4-6.9,10.4-4.8,13.4s7.7,1.9,12.4-2.5s4.8-13.4,4.8-13.4S283.4,232.9,278.8,237.2z"
								/>
						</g>
					</g>
					<g>
						<path class="st8" d="M282.1,282.4l0.9,0.7c0.6,0.5,1.6-0.2,1.5-1c-0.2-2.6-0.3-5.3-0.2-7.9c2.5-18.1-1.1-42.1-18.6-50.5
							s-37.9,4.3-50,17.9c-1.9,1.8-3.9,3.5-6.1,5c-0.7,0.6-0.6,1.7,0.2,1.9l1.1,0.3l-4.2,3c-0.5,0.3-0.6,1-0.4,1.5l3.2,6.2l-0.3-0.1
							c-0.6,0-1.2,0.5-1.2,1.1c0,0.3,0.1,0.5,0.2,0.7c1.6,1.8,3,3.6,4.4,5.5c5.5,9.4,13.7,16.9,23.5,21.5c9.7,4.7,20.6,6.2,31.3,4.5
							c2.3-0.2,4.7-0.2,7-0.1c0.6,0,1.1-0.6,1.1-1.2c0-0.3-0.2-0.6-0.4-0.8l-0.2-0.2l6.7-1.5c0.5-0.2,0.9-0.7,0.9-1.2L282.1,282.4z"
							/>
						<g>
							<path class="st20" d="M282.1,282.4l0.9,0.7c0.6,0.5,1.6-0.2,1.5-1c-0.2-2.6-0.3-5.3-0.2-7.9c2.5-18.1-1.1-42.1-18.6-50.5
								s-37.9,4.3-50,17.9c-1.9,1.8-3.9,3.5-6.1,5c-0.7,0.6-0.6,1.7,0.2,1.9l1.1,0.3l-4.2,3c-0.5,0.3-0.6,1-0.4,1.5l3.2,6.2
								l-0.3-0.1c-0.6,0-1.2,0.5-1.2,1.1c0,0.3,0.1,0.5,0.2,0.7c1.6,1.8,3,3.6,4.4,5.5c5.5,9.4,13.7,16.9,23.5,21.5
								c9.7,4.7,20.6,6.2,31.3,4.5c2.3-0.2,4.7-0.2,7-0.1c0.6,0,1.1-0.6,1.1-1.2c0-0.3-0.2-0.6-0.4-0.8l-0.2-0.2l6.7-1.5
								c0.5-0.2,0.9-0.7,0.9-1.2L282.1,282.4z"/>
							<path class="st21" d="M265.8,267.2c19.3-0.4,18.8,15.8,18.8,14.9c-0.2-2.6-0.3-5.3-0.2-7.9c1.8-12.8,0.5-28.6-6.6-39.7
								c-9.1-2.3-21.6-0.1-27.6,22.4C248.2,263.8,257.4,267.3,265.8,267.2z"/>
						</g>
					</g>
				</g>
				<g>
					<g>
						<g>
							<g>
								<path class="st1" d="M239.6,261.5c0,0-2.3-4-1.4-5.1c0.6-0.8,2.7,0.2,3.5,0.6c0.8,0.4,2.9,1.4,2.7,2.4
									C244.1,260.7,239.6,261.5,239.6,261.5z"/>
								<path class="st22" d="M239.6,261.5c0,0-2.3-4-1.4-5.1c0.6-0.8,2.7,0.2,3.5,0.6c0.8,0.4,2.9,1.4,2.7,2.4
									C244.1,260.7,239.6,261.5,239.6,261.5z"/>
							</g>
							<path class="st8" d="M243.2,265.7c-1.1,0.6-2.5,0.1-3-1c-0.1-0.2-0.1-0.3-0.2-0.5c-0.1-0.4-0.5-0.6-0.9-0.5
								c-1.1,0.6-2.5,0.1-3-1c-0.1-0.2-0.1-0.3-0.2-0.5c-0.3-0.9-1.8-0.5-1.4,0.4c0.5,1.9,2.5,3.1,4.4,2.7c0.8,1.8,3,2.6,4.8,1.8
								C244.6,266.8,244.2,265.3,243.2,265.7z"/>
						</g>
						<g>
							<g>
								<path class="st8" d="M226.6,255.4c-3.3-5.1-8-9.3-13.4-12c-0.4-0.2-0.8,0.4-0.4,0.6c5.4,2.7,9.9,6.7,13.2,11.8
									C226.2,256.2,226.9,255.8,226.6,255.4L226.6,255.4z"/>
								<path class="st8" d="M225.7,257.8c-4.7-4.5-10.4-7.9-16.6-10c-0.5-0.1-0.7,0.6-0.2,0.7c6.1,2,11.7,5.3,16.3,9.8
									C225.4,258.6,225.9,258.1,225.7,257.8L225.7,257.8z"/>
							</g>
							<g>
								<path class="st8" d="M259.4,271.7c5.9-0.6,11.9,0.3,17.3,2.7c0.4,0.2,0.8-0.4,0.4-0.6c-5.5-2.5-11.6-3.4-17.7-2.8
									C258.9,271,258.9,271.8,259.4,271.7z"/>
								<path class="st8" d="M258,274c6.4,0.8,12.5,3,17.9,6.5c0.4,0.3,0.8-0.4,0.4-0.6c-5.5-3.5-11.7-5.7-18.1-6.6
									C257.8,273.2,257.5,273.9,258,274L258,274z"/>
							</g>
						</g>
					</g>
					<g>
						<g>
							<g>
								<path class="st8" d="M235.8,247.1c-1.5,3.3-4,5.4-5.5,4.7s-1.5-4,0-7.3s4-5.4,5.5-4.7S237.2,243.8,235.8,247.1z"/>
								<path class="st11" d="M234.7,243.9c-0.6,1.3-1.6,2.1-2.2,1.9s-0.6-1.6,0-2.9s1.6-2.1,2.2-1.9S235.2,242.6,234.7,243.9z"/>
							</g>
							<g>
								<path class="st8" d="M262.8,260.5c-1.5,3.3-4,5.4-5.5,4.7c-1.5-0.7-1.5-4,0-7.3c1.5-3.3,4-5.4,5.5-4.7
									S264.3,257.2,262.8,260.5z"/>
								<path class="st11" d="M261.8,257.3c-0.6,1.3-1.6,2.1-2.1,1.9s-0.6-1.6,0-2.9c0.6-1.3,1.6-2.1,2.2-1.9S262.3,256,261.8,257.3
									z"/>
							</g>
						</g>
						<g>
							<g class="st16">
								<path d="M233.2,236.4c1.8-1.4,4.1-2,6.4-1.8c0.9,0.1,1.4-1.3,0.4-1.4c-2.7-0.4-5.4,0.3-7.6,1.9
									C231.6,235.6,232.4,236.9,233.2,236.4L233.2,236.4z"/>
							</g>
							<g class="st16">
								<path d="M265.9,247.8c1.6,1.7,2.4,3.9,2.4,6.2c0,1,1.5,1,1.5,0c0-2.7-1-5.3-2.9-7.2C266.3,246,265.3,247,265.9,247.8
									L265.9,247.8z"/>
							</g>
						</g>
					</g>
				</g>
			</g>
			<g>
				<path class="st23" d="M309,244.6c0,26.3-19.6,48.4-45.6,51.6c-2.1,0.3-4.2,0.4-6.4,0.4c-28.7,0-52-23.3-52-52s23.3-52,52-52
					C285.8,192.6,309,215.8,309,244.6L309,244.6z"/>
				<g>
					<path class="st7" d="M274.8,202.4c-2.7-1.3-5.5-2.4-8.4-3.1c-0.8-0.2-1.6,0.3-1.8,1c0,0.2-0.1,0.3,0,0.5l0.2,2.4
						c0.1,0.7,0.6,1.2,1.2,1.3c2.5,0.4,5,1,7.4,1.8c0.8,0.3,1.6-0.1,1.9-0.9c0-0.1,0.1-0.2,0.1-0.2l0.2-1.3
						C275.8,203.4,275.4,202.7,274.8,202.4z"/>
					<path class="st7" d="M256.5,201.5l-0.5-1.4c-0.4-1-1.4-1.7-2.5-1.6c-24.7,1.6-43.4,23-41.8,47.6c0.6,8.4,3.4,16.4,8.4,23.2
						l-0.1-0.2c-11-22.2-1.8-49.2,20.4-60.1c4.4-2.2,9.2-3.6,14.1-4.2c1.4-0.2,2.4-1.4,2.2-2.8C256.8,201.9,256.6,201.7,256.5,201.5
						z"/>
				</g>
			</g>
			<path class="st4" d="M263.4,296.2c-2.1,0.3-4.2,0.4-6.4,0.4c-19.8,0-37.9-11.2-46.6-29c-0.3-0.7-0.6-1.4-0.9-2.1
				c-0.3-0.8-1.2-1.2-2-0.8c-0.2,0.1-0.5,0.3-0.6,0.5c-1,1.4-1.1,3.2-0.3,4.6c10.8,21.1,33.4,33.3,56.9,30.8c1.6-0.1,3-1.1,3.7-2.6
				c0.4-0.8,0.1-1.7-0.7-2.1c-0.3-0.1-0.6-0.2-0.9-0.1C264.8,296,264,296.1,263.4,296.2z"/>
		</g>
		<g>
			<g>
				<g>
					<path class="st4" d="M259.1,306.3c-6.8-2.6-10.3-4.4-19.8-17.5c-11.7-16.2-34.5,10-30.1,17.1s18.3,10.5,20-4.1l1.2,0.1
						c0,0,4,10.9,6.8,16.7c5.6,11.6,20.3,16.2,26.7,6.4C266.8,320.8,268.1,309.7,259.1,306.3z"/>
					<path class="st13" d="M259.1,306.3c-6.8-2.6-10.3-4.4-19.8-17.5c-11.7-16.2-34.5,10-30.1,17.1s18.3,10.5,20-4.1l1.2,0.1
						c0,0,4,10.9,6.8,16.7c5.6,11.6,20.3,16.2,26.7,6.4C266.8,320.8,268.1,309.7,259.1,306.3z"/>
				</g>
				<g>
					<g>
						<path class="st0" d="M259.1,306.3c9.8,3.7,6.1,15.4,2.9,19.2c-4.6,5.6-9.2,6-13.3,3.7c4.2,4,9.5,4.5,15.7-2.2
							C268.9,322.4,270.9,306.9,259.1,306.3z"/>
						<path class="st14" d="M259.1,306.3c9.8,3.7,6.1,15.4,2.9,19.2c-4.6,5.6-9.2,6-13.3,3.7c4.2,4,9.5,4.5,15.7-2.2
							C268.9,322.4,270.9,306.9,259.1,306.3z"/>
					</g>
					<g>
						<path class="st0" d="M226.8,284.6c3.1,5,3.9,11.1,2.2,16.8c-0.4,1.4,1.7,2.3,2.1,0.9c1.8-6.3,1.2-13.5-2.5-19.1
							C227.7,282.1,225.9,283.4,226.8,284.6L226.8,284.6z"/>
						<g class="st12">
							<path class="st11" d="M226.8,284.6c3.1,5,3.9,11.1,2.2,16.8c-0.4,1.4,1.7,2.3,2.1,0.9c1.8-6.3,1.2-13.5-2.5-19.1
								C227.7,282.1,225.9,283.4,226.8,284.6L226.8,284.6z"/>
						</g>
					</g>
					<g>
						<g>
							<path class="st0" d="M213.4,300.5c-1.8,2-2.8,4.7-2.6,7.4c0.4,0.4,0.8,0.8,1.2,1.1c0.2-0.1,0.3-0.4,0.3-0.6
								c-0.2-2.3,0.3-5,2-6.7C214.9,301,214.1,299.8,213.4,300.5z"/>
							<path class="st0" d="M219.2,303.6c-2.3,1.9-3.4,4.8-3.1,7.7c0.5,0.2,1,0.3,1.6,0.5v-0.1c-0.5-2.6,0.5-5.2,2.5-6.9
								C220.9,304.1,219.9,302.9,219.2,303.6z"/>
						</g>
						<g class="st12">
							<path d="M213.4,300.5c-1.8,2-2.8,4.7-2.6,7.4c0.4,0.4,0.8,0.8,1.2,1.1c0.2-0.1,0.3-0.4,0.3-0.6c-0.2-2.3,0.3-5,2-6.7
								C214.9,301,214.1,299.8,213.4,300.5z"/>
							<path d="M219.2,303.6c-2.3,1.9-3.4,4.8-3.1,7.7c0.5,0.2,1,0.3,1.6,0.5v-0.1c-0.5-2.6,0.5-5.2,2.5-6.9
								C220.9,304.1,219.9,302.9,219.2,303.6z"/>
						</g>
					</g>
				</g>
			</g>
			<g>
				<path class="st11" d="M253.4,309l6.7,2.8c0.7,4.6-0.9,9.2-4.2,12.4c0,0-3.2,0.2-7.9-4.6C248.2,319.6,253.2,315.4,253.4,309z"/>
				<g>
					<g id="Interno">
						<path class="st24" d="M254.2,316.7c-0.2,0-0.5-0.1-0.5-0.3v-0.1l0,0v-0.1c0.1-0.2,0.3-0.4,0.5-0.3c0.2,0,0.4,0.2,0.4,0.4
							C254.6,316.4,254.4,316.6,254.2,316.7z"/>
						<path class="st24" d="M254.2,317.9c-0.3,0-0.5-0.1-0.5-0.4c0,0,0,0,0-0.1l0,0c0-0.1,0-0.1,0.1-0.2c0.1-0.2,0.3-0.3,0.5-0.2
							c0.2,0,0.4,0.2,0.4,0.4C254.6,317.7,254.4,317.9,254.2,317.9z"/>
						<path class="st24" d="M255.7,315.6c0,0.2-0.2,0.4-0.5,0.4s-0.5-0.2-0.5-0.4c0-0.2,0.2-0.5,0.4-0.5l0,0h0.1h0.1
							C255.6,315.2,255.7,315.4,255.7,315.6z"/>
						<path class="st24" d="M256.8,316.2c0,0.3-0.2,0.5-0.5,0.5c-0.3,0-0.5-0.2-0.5-0.5l0,0c0-0.3,0.2-0.5,0.5-0.5
							C256.5,315.7,256.8,316,256.8,316.2z"/>
						<path class="st24" d="M256.8,317.5c0,0.3-0.2,0.5-0.5,0.5c-0.3,0-0.5-0.2-0.5-0.5l0,0c0-0.3,0.2-0.5,0.5-0.5
							C256.5,317,256.8,317.2,256.8,317.5L256.8,317.5z"/>
						<path class="st24" d="M255.7,318.1c0,0.3-0.2,0.5-0.5,0.5s-0.5-0.2-0.5-0.5l0,0c0-0.3,0.2-0.5,0.5-0.5
							S255.7,317.8,255.7,318.1z"/>
					</g>
					<g id="Externo">
						<path class="st25" d="M255.7,314.1c0,0.2-0.2,0.4-0.4,0.4c-0.3,0.1-0.6-0.2-0.6-0.5c0-0.2,0.2-0.4,0.4-0.4l0,0h0.1
							c0,0,0,0,0.1,0C255.4,313.6,255.7,313.8,255.7,314.1z"/>
						<path class="st25" d="M253.1,316.8c0,0.3-0.2,0.5-0.5,0.5s-0.5-0.2-0.5-0.5s0.2-0.5,0.5-0.5l0,0
							C252.9,316.4,253.1,316.6,253.1,316.8L253.1,316.8z"/>
						<path class="st25" d="M258.2,316.8c0,0.3-0.2,0.5-0.5,0.5s-0.5-0.2-0.5-0.5s0.2-0.5,0.5-0.5
							C258,316.4,258.2,316.6,258.2,316.8z"/>
						<path class="st25" d="M253.9,318.7c0,0.3-0.2,0.5-0.5,0.5s-0.5-0.2-0.5-0.5s0.2-0.5,0.5-0.5l0,0
							C253.7,318.2,253.9,318.4,253.9,318.7z"/>
						<path class="st25" d="M257.4,315c0,0.3-0.2,0.5-0.5,0.5s-0.5-0.2-0.5-0.5s0.2-0.5,0.5-0.5l0,0
							C257.2,314.5,257.4,314.7,257.4,315z"/>
						<path class="st25" d="M257.4,318.7c0,0.3-0.2,0.5-0.5,0.5s-0.5-0.2-0.5-0.5l0,0c0-0.3,0.2-0.5,0.5-0.5
							C257.2,318.2,257.4,318.4,257.4,318.7L257.4,318.7z"/>
						<path class="st25" d="M255.7,319.6c0,0.3-0.2,0.5-0.5,0.5s-0.5-0.2-0.5-0.5s0.2-0.5,0.5-0.5
							C255.4,319.2,255.7,319.4,255.7,319.6z"/>
						<path class="st25" d="M253.9,315c0,0.3-0.2,0.5-0.5,0.5s-0.5-0.2-0.5-0.5s0.2-0.5,0.5-0.5S253.9,314.7,253.9,315L253.9,315z"
							/>
					</g>
				</g>
			</g>
		</g>
		<g>
			<g>
				<g>
					<path class="st4" d="M132.4,252.6H132c-1.6,0-3.2,0.5-4.5,1.4h-0.1c-31.1,20.2-39.9,61.8-19.7,92.9
						c15.8,24.3,45.4,35.7,73.4,28.4c0.6-0.2,1.2-0.5,1.6-0.9l0.1-0.1c1.3-1.4,1.3-3.5-0.1-4.8c-0.6-0.5-1.3-0.9-2.1-1
						c-34-3-59.2-33-56.2-67.1c1.1-12.7,6.1-24.7,14.3-34.4c3.1-3.7,2.6-9.2-1.1-12.3C136.2,253.4,134.4,252.6,132.4,252.6z"/>
					<path class="st13" d="M182.9,374.2L182.9,374.2c-0.5,0.5-1.1,0.8-1.7,1c-12.8,3.3-26.3,2.8-38.8-1.5c-2.5-0.9-4.9-1.9-7.3-3
						c-22.5-10.8-37.1-33.2-38-58.2l0.1-6.4c1.3-21.2,12.5-40.6,30.4-52.2h0.1c1.3-0.9,2.9-1.4,4.5-1.4h0.4c4.8,0.1,8.6,4.2,8.5,9
						c-0.1,2-0.8,3.8-2,5.3c-15.2,18.1-18.8,43.2-9.3,64.9c0.6,1.3,1.2,2.5,1.8,3.8c0.9,1.7,1.9,3.3,2.9,5
						c6.3,9.6,15.1,17.3,25.5,22.2c1.3,0.6,2.6,1.2,3.9,1.7l0,0c5.4,2.1,11.2,3.5,17,4c1.9,0.2,3.2,1.9,3,3.8
						C183.7,373,183.4,373.7,182.9,374.2z"/>
				</g>
				<g>
					<path class="st9" d="M183.6,370.6c-0.4-1.2-1.6-2.1-2.9-2.2c-34-3-59.2-33-56.2-67.1c1.1-12.7,6.1-24.7,14.3-34.4
						c2.1-2.4,2.6-5.8,1.4-8.8c-1.1,0.1-2.2,0.4-3.1,1h-0.1c-25.4,16.5-30.8,53.2-12.1,81.8C138.9,362.3,162.2,373.1,183.6,370.6z"
						/>
					<path class="st26" d="M138.9,267c-4.8,5.7-8.5,12.2-11,19.2c-3.3,1.6-8.4-17.6-7.1-27.2c2.1-1.8,4.3-3.4,6.7-4.9h0.1
						c1.3-0.9,2.9-1.4,4.5-1.4h0.4c4.8,0.1,8.7,4.1,8.5,9C140.9,263.5,140.2,265.4,138.9,267z"/>
					<path class="st26" d="M131.4,335.6c-0.3,0.2-0.7,0.3-1.1,0.3c-0.1,0-0.2,0-0.3,0c-13.6-1.9-26.7-11.2-33.1-23.4l0.1-6.4
						c0.7,0,1.4,0.3,1.8,0.9l0.6,0.9c0.2,0.3,0.3,0.7,0.3,1.1c5.3,11.5,17.2,20.6,29.9,22.7C130.2,333.1,130.8,334.4,131.4,335.6z"
						/>
					<path class="st26" d="M163.8,364.5c-0.1,0.3-0.3,0.6-0.6,0.8c-5.9,4.8-13.2,7.8-20.8,8.5c-2.5-0.9-4.9-1.9-7.3-3
						c0.4-0.6,1.1-0.9,1.8-0.9c8.3,0.5,16.4-2,23-7.1C161.2,363.4,162.4,364,163.8,364.5z"/>
				</g>
			</g>
			<g>
				<path class="st0" d="M184.1,368c-1.8-1.7-3.3-0.6-4.1,0.4l0.8,0.1c1.9,0.2,3.3,1.8,3.1,3.7c-0.1,0.8-0.4,1.5-1,2.1l-0.1,0.1
					c-0.2,0.2-0.5,0.4-0.8,0.6C185.2,378,187.1,370.7,184.1,368z"/>
				<g class="st12">
					<path class="st11" d="M184.1,368c-1.8-1.7-3.3-0.6-4.1,0.4l0.8,0.1c1.9,0.2,3.3,1.8,3.1,3.7c-0.1,0.8-0.4,1.5-1,2.1l-0.1,0.1
						c-0.2,0.2-0.5,0.4-0.8,0.6C185.2,378,187.1,370.7,184.1,368z"/>
				</g>
			</g>
		</g>
		<g>
			<g>
				<g>
					<path class="st4" d="M205.4,332.1c0,0,11.2-39.4-9-32.9c-22.2,7.2-5.1,19.9-13.5,41.8c-5.8,15,3.9,14.3,10.6,12.4
						c0,0-18.4,34,11,24.7s31.7-30.8,24.7-42.4S205.4,332.1,205.4,332.1z"/>
					<path class="st13" d="M205.4,332.1c0,0,11.2-39.4-9-32.9c-22.2,7.2-5.1,19.9-13.5,41.8c-5.8,15,3.9,14.3,10.6,12.4
						c0,0-18.4,34,11,24.7s31.7-30.8,24.7-42.4S205.4,332.1,205.4,332.1z"/>
				</g>
				<g>
					<path class="st0" d="M205.4,332.1c0,0,16.8-7.9,23.8,3.7s4.7,33-24.7,42.4c-13.1,4.2-16.7-0.3-16.6-6.5
						c-0.6,7.3,2.6,13.1,17.4,8.4c30.8-9.8,33.3-32.3,25.9-44.5s-24.9-3.9-24.9-3.9L205.4,332.1z"/>
					<path class="st14" d="M205.4,332.1c0,0,16.8-7.9,23.8,3.7s4.7,33-24.7,42.4c-13.1,4.2-16.7-0.3-16.6-6.5
						c-0.6,7.3,2.6,13.1,17.4,8.4c30.8-9.8,33.3-32.3,25.9-44.5s-24.9-3.9-24.9-3.9L205.4,332.1z"/>
				</g>
				<g>
					<path class="st0" d="M205.4,330.2c-2.5,8.3-6.9,16-12.9,22.3c-1.3,1.4,0.8,3.5,2.1,2.1c6.4-6.7,11-14.8,13.7-23.6
						C208.9,329.1,206.1,328.4,205.4,330.2L205.4,330.2z"/>
					<g class="st12">
						<path class="st11" d="M205.4,330.2c-2.5,8.3-6.9,16-12.9,22.3c-1.3,1.4,0.8,3.5,2.1,2.1c6.4-6.7,11-14.8,13.7-23.6
							C208.9,329.1,206.1,328.4,205.4,330.2L205.4,330.2z"/>
					</g>
				</g>
			</g>
			<g>
				<g>
					<path class="st0" d="M191.9,301.1c-15,7.4-1.2,19.8-8.9,40c-1.1,2.6-1.7,5.3-1.7,8.1c0.2,0.5,7.1,17,18.8-18.7
						C211.6,295.6,193.2,300.7,191.9,301.1z"/>
					<path class="st15" d="M191.9,301.1c-15,7.4-1.2,19.8-8.9,40c-1.1,2.6-1.7,5.3-1.7,8.1c0.2,0.5,7.1,17,18.8-18.7
						C211.6,295.6,193.2,300.7,191.9,301.1z"/>
				</g>
				<g class="st16">
					<path class="st11" d="M187.6,310.5l11.8-4.4c0.9-0.3,0.5-1.8-0.4-1.4l-11.8,4.3C186.2,309.4,186.7,310.8,187.6,310.5z"/>
					<path class="st11" d="M187.6,317.6l11.8-4.4c0.9-0.3,0.5-1.8-0.4-1.4l-11.8,4.3C186.2,316.5,186.7,317.9,187.6,317.6z"/>
					<path class="st11" d="M187.9,324.7l11.8-4.4c0.9-0.3,0.5-1.8-0.4-1.4l-11.8,4.3C186.6,323.6,186.9,325,187.9,324.7z"/>
					<path class="st11" d="M187.9,332.5l9.8-3.6c0.9-0.3,0.5-1.8-0.4-1.5l-9.8,3.6C186.7,331.4,187.1,332.8,187.9,332.5z"/>
					<path class="st11" d="M185.9,340.6l8.5-3.1c0.9-0.3,0.5-1.8-0.4-1.5l-8.6,3.2C184.7,339.5,185.1,340.9,185.9,340.6L185.9,340.6
						z"/>
					<path class="st11" d="M183.7,347.9l8.5-3.1c0.9-0.3,0.5-1.8-0.4-1.5l-8.5,3.1C182.4,346.7,182.8,348.2,183.7,347.9z"/>
				</g>
			</g>
		</g>
	</g>
</g>
</svg>
