<svg id="Camada_1" data-name="Camada 1" xmlns="http://www.w3.org/2000/svg" viewBox="0 0 104.29 102.59"><defs><style>.cls-1{fill:#fca311;}.cls-2{fill:#407bff;}.cls-2,.cls-3{opacity:0.2;isolation:isolate;}.cls-4{fill:#7a4d0a;}</style></defs><path class="cls-1" d="M90.5,16.44c.37.39.74.79,1.1,1.19C91.24,17.23,90.87,16.83,90.5,16.44Z" transform="translate(-0.36 0.02)"/><path class="cls-1" d="M.91,44.56A52,52,0,0,0,10.8,83.4a39.91,39.91,0,0,0,4.45-4.07A12.35,12.35,0,0,0,14,78.48a6.32,6.32,0,0,1-1.21-1c-1-1-.85-1.77.55-2.08a5.71,5.71,0,0,1,2.06-.07,10.41,10.41,0,0,1,2.7.86c1.53-1.79,3.23-4,5.09-6.53-.14-.17-.29-.34-.43-.52A25.3,25.3,0,0,1,17.81,56.4c-.17-1.28-.28-2.53-.33-3.77v-.05a9.58,9.58,0,0,1,0-2.45.2.2,0,0,1,0-.07,21.71,21.71,0,0,1,5.11-13.6,1.59,1.59,0,0,0,.22-1.28,20.76,20.76,0,0,1,.15-12c.64-2.23.89-2.37,3.23-2a25.23,25.23,0,0,1,8.19,3C40.58,14.84,49.68,17.32,56.17.12A52.13,52.13,0,0,0,.91,44.56Z" transform="translate(-0.36 0.02)"/><path class="cls-1" d="M84.49,11q.75.57,1.47,1.17C85.48,11.72,85,11.34,84.49,11Z" transform="translate(-0.36 0.02)"/><path class="cls-1" d="M14.51,87.8c-.29-.31-.59-.62-.87-.93C13.92,87.18,14.22,87.49,14.51,87.8Z" transform="translate(-0.36 0.02)"/><path class="cls-1" d="M12.48,85.52c-.31-.37-.61-.75-.9-1.13C11.87,84.77,12.17,85.15,12.48,85.52Z" transform="translate(-0.36 0.02)"/><path class="cls-1" d="M92.19,18.32c.4.48.8,1,1.19,1.45C93,19.28,92.6,18.8,92.19,18.32Z" transform="translate(-0.36 0.02)"/><path class="cls-1" d="M88.69,14.59c.37.36.73.71,1.09,1.08C89.42,15.3,89.06,15,88.69,14.59Z" transform="translate(-0.36 0.02)"/><path class="cls-1" d="M86.71,12.78c.4.35.8.7,1.19,1.06C87.51,13.48,87.11,13.13,86.71,12.78Z" transform="translate(-0.36 0.02)"/><path class="cls-1" d="M96.69,24.48a25,25,0,0,0-5,12.65c-1,10,0,29.13-14.25,39.38-4.75,3.43-8.62,6.19-11.52,8.43a23.5,23.5,0,0,1,.27,4c0,.6,0,1.21,0,1.81,3.26-2.48,6.76-5.85,8.65-4.8,1.58.85-3.56,6.15-8.7,11.57,0,1.65,0,3.3,0,5a52.1,52.1,0,0,0,30.61-78ZM87.94,80.62c-1.81,2.75-4.65,4.13-6.26,3s-1.38-4.14.43-6.89,4.64-4.08,6.26-3S89.74,77.86,87.94,80.62Z" transform="translate(-0.36 0.02)"/><path class="cls-1" d="M17.66,90.9c-.43-.39-.85-.79-1.27-1.19C16.81,90.11,17.23,90.51,17.66,90.9Z" transform="translate(-0.36 0.02)"/><path class="cls-1" d="M93.76,20.27q.72.91,1.38,1.86C94.69,21.5,94.24,20.88,93.76,20.27Z" transform="translate(-0.36 0.02)"/><path class="cls-1" d="M20.51,93.28c-.62-.48-1.23-1-1.83-1.49C19.28,92.3,19.89,92.79,20.51,93.28Z" transform="translate(-0.36 0.02)"/><path class="cls-1" d="M34.78,93.91c1.29-.12,2.57-.31,4-.49v.32c-2,2.58-3.9,5-5.38,6.9a51.54,51.54,0,0,1-12.54-7,30.05,30.05,0,0,0,2.94-2.35A15.56,15.56,0,0,0,34.78,93.91Z" transform="translate(-0.36 0.02)"/><path class="cls-1" d="M37.35,77.31c1.6.34,3.22.56,5,.86A13.1,13.1,0,0,0,39.1,84.9a1.64,1.64,0,0,1-.89.94,11.7,11.7,0,0,1-9.49.33,80.47,80.47,0,0,0,6-8q.43-.66.87-1.26C36.14,77.05,36.74,77.18,37.35,77.31Z" transform="translate(-0.36 0.02)"/><path class="cls-1" d="M69.49,2.87l0,0c.26.08.51.16.76.26C68.16,9.51,64.15,17,60.73,24A15.87,15.87,0,0,0,60,25.64q2.61.36,5.22,1a3.13,3.13,0,0,0,1.91-.32c2.6-1.31,5.09-2.86,7.76-4a10,10,0,0,1,1.71-.54C78.81,17.46,81,13.34,81.83,9A51.36,51.36,0,0,0,69.49,2.87Z" transform="translate(-0.36 0.02)"/><path class="cls-1" d="M81.83,9l.82.58L81.83,9Z" transform="translate(-0.36 0.02)"/><path class="cls-2" d="M87.9,13.84l.79.75Z" transform="translate(-0.36 0.02)"/><path class="cls-3" d="M87.9,13.84l.79.75Z" transform="translate(-0.36 0.02)"/><path class="cls-2" d="M83.94,10.51l.55.44Z" transform="translate(-0.36 0.02)"/><path class="cls-3" d="M83.94,10.51l.55.44Z" transform="translate(-0.36 0.02)"/><path class="cls-2" d="M89.78,15.67l.72.77Z" transform="translate(-0.36 0.02)"/><path class="cls-3" d="M89.78,15.67l.72.77Z" transform="translate(-0.36 0.02)"/><path class="cls-2" d="M86,12.12l.75.66Z" transform="translate(-0.36 0.02)"/><path class="cls-3" d="M86,12.12l.75.66Z" transform="translate(-0.36 0.02)"/><path class="cls-2" d="M39.32,102.55c-.16,0-.32-.08-.48-.12a51.56,51.56,0,0,1-5.39-1.79l0,0a50.47,50.47,0,0,0,5.42,1.78l.48.11Z" transform="translate(-0.36 0.02)"/><path class="cls-3" d="M39.32,102.55c-.16,0-.32-.08-.48-.12a51.56,51.56,0,0,1-5.39-1.79l0,0a50.47,50.47,0,0,0,5.42,1.78l.48.11Z" transform="translate(-0.36 0.02)"/><path class="cls-2" d="M91.6,17.63l.59.69Z" transform="translate(-0.36 0.02)"/><path class="cls-3" d="M91.6,17.63l.59.69Z" transform="translate(-0.36 0.02)"/><path class="cls-2" d="M93.38,19.77c.13.16.26.33.38.5C93.64,20.1,93.51,19.93,93.38,19.77Z" transform="translate(-0.36 0.02)"/><path class="cls-3" d="M93.38,19.77c.13.16.26.33.38.5C93.64,20.1,93.51,19.93,93.38,19.77Z" transform="translate(-0.36 0.02)"/><path class="cls-2" d="M95.14,22.13l.09.14Z" transform="translate(-0.36 0.02)"/><path class="cls-3" d="M95.14,22.13l.09.14Z" transform="translate(-0.36 0.02)"/><path class="cls-1" d="M38.83,93.74c0,3,.06,5.83,0,8.69a51.56,51.56,0,0,1-5.39-1.79C34.93,98.75,36.84,96.32,38.83,93.74Z" transform="translate(-0.36 0.02)"/><path class="cls-1" d="M66.1,97.49c0-2.26,0-4.51.05-6.77,3.26-2.48,6.76-5.85,8.65-4.8C76.38,86.77,71.24,92.07,66.1,97.49Z" transform="translate(-0.36 0.02)"/><path class="cls-1" d="M96.69,24.48a25,25,0,0,0-5,12.65c-1,10,0,29.13-14.25,39.38-4.75,3.43-8.62,6.19-11.52,8.43a12.11,12.11,0,0,0-3.16-6.64c2.93-.68,5.77-1.17,8.5-2,9.11-2.74,14.19-9,15.73-18.3.78-4.67,1-9.35-.38-14a19.49,19.49,0,0,0-3.9-7.18,1.82,1.82,0,0,1-.43-2,20,20,0,0,0-.62-12.81,1.64,1.64,0,0,0-1.29-.9c-1.24.18-2.51.31-3.73.61C78.81,17.46,81,13.34,81.83,9h0l.82.58c.44.31.87.62,1.29.94.19.14.37.29.55.44q.75.57,1.47,1.17l.75.66c.4.34.8.69,1.19,1.05l.79.76c.37.35.73.71,1.09,1.07l.72.77c.37.39.74.79,1.1,1.2l.59.69c.4.47.8,1,1.19,1.44.13.17.26.33.38.5q.72.91,1.38,1.86l.09.14c.29.41.56.82.83,1.23s.42.64.62,1C96.68,24.47,96.69,24.47,96.69,24.48Z" transform="translate(-0.36 0.02)"/><path class="cls-2" d="M38.83,93.74c0,3,.06,5.83,0,8.69a51.56,51.56,0,0,1-5.39-1.79C34.93,98.75,36.84,96.32,38.83,93.74Z" transform="translate(-0.36 0.02)"/><path class="cls-2" d="M66.1,97.49c0-2.26,0-4.51.05-6.77,3.26-2.48,6.76-5.85,8.65-4.8C76.38,86.77,71.24,92.07,66.1,97.49Z" transform="translate(-0.36 0.02)"/><path class="cls-2" d="M96.69,24.48a25,25,0,0,0-5,12.65c-1,10,0,29.13-14.25,39.38-4.75,3.43-8.62,6.19-11.52,8.43a12.11,12.11,0,0,0-3.16-6.64c2.93-.68,5.77-1.17,8.5-2,9.11-2.74,14.19-9,15.73-18.3.78-4.67,1-9.35-.38-14a19.49,19.49,0,0,0-3.9-7.18,1.82,1.82,0,0,1-.43-2,20,20,0,0,0-.62-12.81,1.64,1.64,0,0,0-1.29-.9c-1.24.18-2.51.31-3.73.61C78.81,17.46,81,13.34,81.83,9h0l.82.58c.44.31.87.62,1.29.94.19.14.37.29.55.44q.75.57,1.47,1.17l.75.66c.4.34.8.69,1.19,1.05l.79.76c.37.35.73.71,1.09,1.07l.72.77c.37.39.74.79,1.1,1.2l.59.69c.4.47.8,1,1.19,1.44.13.17.26.33.38.5q.72.91,1.38,1.86l.09.14c.29.41.56.82.83,1.23s.42.64.62,1C96.68,24.47,96.69,24.47,96.69,24.48Z" transform="translate(-0.36 0.02)"/><path class="cls-3" d="M38.83,93.74c0,3,.06,5.83,0,8.69a51.56,51.56,0,0,1-5.39-1.79C34.93,98.75,36.84,96.32,38.83,93.74Z" transform="translate(-0.36 0.02)"/><path class="cls-3" d="M66.1,97.49c0-2.26,0-4.51.05-6.77,3.26-2.48,6.76-5.85,8.65-4.8C76.38,86.77,71.24,92.07,66.1,97.49Z" transform="translate(-0.36 0.02)"/><path class="cls-3" d="M96.69,24.48a25,25,0,0,0-5,12.65c-1,10,0,29.13-14.25,39.38-4.75,3.43-8.62,6.19-11.52,8.43a12.11,12.11,0,0,0-3.16-6.64c2.93-.68,5.77-1.17,8.5-2,9.11-2.74,14.19-9,15.73-18.3.78-4.67,1-9.35-.38-14a19.49,19.49,0,0,0-3.9-7.18,1.82,1.82,0,0,1-.43-2,20,20,0,0,0-.62-12.81,1.64,1.64,0,0,0-1.29-.9c-1.24.18-2.51.31-3.73.61C78.81,17.46,81,13.34,81.83,9h0l.82.58c.44.31.87.62,1.29.94.19.14.37.29.55.44q.75.57,1.47,1.17l.75.66c.4.34.8.69,1.19,1.05l.79.76c.37.35.73.71,1.09,1.07l.72.77c.37.39.74.79,1.1,1.2l.59.69c.4.47.8,1,1.19,1.44.13.17.26.33.38.5q.72.91,1.38,1.86l.09.14c.29.41.56.82.83,1.23s.42.64.62,1C96.68,24.47,96.69,24.47,96.69,24.48Z" transform="translate(-0.36 0.02)"/><path class="cls-1" d="M17.48,52.58a9.58,9.58,0,0,1,0-2.45C17.45,50.94,17.45,51.75,17.48,52.58Z" transform="translate(-0.36 0.02)"/><path class="cls-3" d="M17.48,52.58a9.58,9.58,0,0,1,0-2.45C17.45,50.94,17.45,51.75,17.48,52.58Z" transform="translate(-0.36 0.02)"/><path class="cls-4" d="M23.16,69.67c-1.86,2.58-3.56,4.74-5.09,6.53A12.52,12.52,0,0,1,23.12,81a12.76,12.76,0,0,0,5.6,5.14,80.47,80.47,0,0,0,6-8q.43-.66.87-1.26C30.77,75.67,26.46,73.56,23.16,69.67ZM19.68,85.4a12.31,12.31,0,0,0-4.43-6.07A39.91,39.91,0,0,1,10.8,83.4h0c.25.34.53.66.79,1s.59.75.9,1.12.77.91,1.16,1.35.58.62.87.93c.61.66,1.23,1.29,1.88,1.91.42.4.84.81,1.27,1.19l1,.89c.6.51,1.21,1,1.83,1.49l.39.32h0a30.05,30.05,0,0,0,2.94-2.35A11.82,11.82,0,0,1,19.68,85.4ZM56.47.14l-.3,0h0C49.68,17.32,40.58,14.84,34.4,24.23c1.17.64,2.31,1.33,3.46,2a2.88,2.88,0,0,0,2,.33A53.9,53.9,0,0,1,60,25.64,15.87,15.87,0,0,1,60.73,24c3.42-7,7.43-14.46,9.5-20.8A52.78,52.78,0,0,0,56.47.14Z" transform="translate(-0.36 0.02)"/><path class="cls-4" d="M88.37,73.72c-1.62-1.09-4.46.24-6.26,3s-2,5.75-.43,6.89,4.45-.23,6.26-3S90,74.81,88.37,73.72Z" transform="translate(-0.36 0.02)"/></svg>