<svg id="Camada_1" data-name="Camada 1" xmlns="http://www.w3.org/2000/svg" viewBox="0 0 102.01 102"><defs><style>.cls-1,.cls-3{fill:#407bff;}.cls-2{fill:#fca311;}.cls-3,.cls-4{opacity:0.2;isolation:isolate;}.cls-5{fill:#7a4d0a;}</style></defs><path class="cls-1" d="M95.72,24.26h0c-.35-.56-.71-1.12-1.09-1.66S93.89,21.5,93.5,21a50.43,50.43,0,0,0-3.35-4.08c-.19-.21-.39-.43-.6-.64s-.35-.37-.53-.56a.08.08,0,0,0,0,0,5,5,0,0,0-.4-.4.24.24,0,0,0-.1-.1l-.39-.39-.71-.68c-.64-.61-1.3-1.19-2-1.77s-1.36-1.11-2.06-1.65-1.42-1-2.16-1.54A50.74,50.74,0,0,0,59.89.82C58.64.64,57.39.5,56.14.41h0A51,51,0,0,0,11.71,81.88q1.33,1.78,2.81,3.44l.76.83c1,1.08,2.08,2.12,3.19,3.12l.84.73c.41.37.84.72,1.27,1.06.24.2.5.41.76.6l.26.2h0a50.48,50.48,0,0,0,12.24,6.89,51.4,51.4,0,0,0,11.26,3c1.25.18,2.5.32,3.75.41l1.54.08.6,0h.15c.67,0,1.34,0,2,0,.34,0,.69,0,1.05,0h.55c.53,0,1.06-.06,1.59-.1s1.31-.12,2-.19a0,0,0,0,1,0,0A51,51,0,0,0,95.72,24.26ZM28.13,17.45a9.23,9.23,0,1,1-9.22,9.29A9.24,9.24,0,0,1,28.13,17.45Zm4.15,67.66H23.81c-2,0-2.84-.84-2.84-2.84V42.63c0-2,.84-2.88,2.87-2.88h8.65c1.93,0,2.77.84,2.77,2.8q0,9.95,0,19.9c0,4.68,0,9.35,0,14v5.64C35.26,84.36,34.52,85.11,32.28,85.11Zm53.81-2.52a2.2,2.2,0,0,1-2.48,2.52c-3,0-6,0-9,0H74a2.59,2.59,0,0,1-1.83-.6,2.52,2.52,0,0,1-.66-1.92V79c0-5.9,0-11.8,0-17.71a16.57,16.57,0,0,0-.73-5.08c0-.16-.11-.33-.17-.5-2-5.54-9.4-5.39-12-1.88A12.6,12.6,0,0,0,56,61.54q0,6,0,12.08c0,2.89,0,5.79,0,8.67,0,2.07-.76,2.82-2.8,2.82q-4.42,0-8.83,0h-.07c-1.82,0-2.62-.82-2.62-2.65,0-4.44,0-8.87,0-13.32q0-10.3,0-20.62V42.37c0-1.8.83-2.62,2.65-2.62h9.15A2.25,2.25,0,0,1,56,42.27c0,.91,0,1.84,0,2.77a22.05,22.05,0,0,1,3.44-3.27l.17-.12a14.53,14.53,0,0,1,6.46-2.33,25.36,25.36,0,0,1,6.09-.1,19.55,19.55,0,0,1,3,.6,13.36,13.36,0,0,1,9,8.5A32.33,32.33,0,0,1,86.06,60c0,1.24,0,2.48,0,3.72q0,4.18,0,8.37Z" transform="translate(-1.5 -0.28)"/><path class="cls-2" d="M95.72,24.26h0c-.35-.56-.71-1.12-1.09-1.66S93.89,21.5,93.5,21a50.43,50.43,0,0,0-3.35-4.08c-.19-.21-.39-.43-.6-.64s-.35-.37-.53-.56a.08.08,0,0,0,0,0,5,5,0,0,0-.4-.4.24.24,0,0,0-.1-.1l-.39-.39-.71-.68c-.64-.61-1.3-1.19-2-1.77s-1.36-1.11-2.06-1.65-1.42-1-2.16-1.54A50.74,50.74,0,0,0,59.89.82C58.64.64,57.39.5,56.14.41h0A51,51,0,0,0,11.71,81.88q1.33,1.78,2.81,3.44l.76.83c1,1.08,2.08,2.12,3.19,3.12l.84.73c.41.37.84.72,1.27,1.06.24.2.5.41.76.6l.26.2h0a50.48,50.48,0,0,0,12.24,6.89,51.4,51.4,0,0,0,11.26,3c1.25.18,2.5.32,3.75.41l1.54.08.6,0h.15c.67,0,1.34,0,2,0,.34,0,.69,0,1.05,0h.55c.53,0,1.06-.06,1.59-.1s1.31-.12,2-.19a0,0,0,0,1,0,0A51,51,0,0,0,95.72,24.26ZM28.13,17.45a9.23,9.23,0,1,1-9.22,9.29A9.24,9.24,0,0,1,28.13,17.45Zm4.15,67.66H23.81c-2,0-2.84-.84-2.84-2.84V42.63c0-2,.84-2.88,2.87-2.88h8.65c1.93,0,2.77.84,2.77,2.8q0,9.95,0,19.9c0,4.68,0,9.35,0,14v5.64C35.26,84.36,34.52,85.11,32.28,85.11Zm53.81-2.52a2.2,2.2,0,0,1-2.48,2.52c-3,0-6,0-9,0H74a2.59,2.59,0,0,1-1.83-.6,2.52,2.52,0,0,1-.66-1.92V79c0-5.9,0-11.8,0-17.71a16.57,16.57,0,0,0-.73-5.08c0-.16-.11-.33-.17-.5-2-5.54-9.4-5.39-12-1.88A12.6,12.6,0,0,0,56,61.54q0,6,0,12.08c0,2.89,0,5.79,0,8.67,0,2.07-.76,2.82-2.8,2.82q-4.42,0-8.83,0h-.07c-1.82,0-2.62-.82-2.62-2.65,0-4.44,0-8.87,0-13.32q0-10.3,0-20.62V42.37c0-1.8.83-2.62,2.65-2.62h9.15A2.25,2.25,0,0,1,56,42.27c0,.91,0,1.84,0,2.77a22.05,22.05,0,0,1,3.44-3.27l.17-.12a14.53,14.53,0,0,1,6.46-2.33,25.36,25.36,0,0,1,6.09-.1,19.55,19.55,0,0,1,3,.6,13.36,13.36,0,0,1,9,8.5A32.33,32.33,0,0,1,86.06,60c0,1.24,0,2.48,0,3.72q0,4.18,0,8.37Z" transform="translate(-1.5 -0.28)"/><path class="cls-3" d="M74,85.11h.6c-.58,2.66-9.35,10.78-14.28,16.57q-1,.15-2,.27a0,0,0,0,0,0,0c-.65.07-1.31.14-2,.19s-1.06.08-1.59.1h-.55c-.36,0-.71,0-1.05,0-.67,0-1.34,0-2,0H51l-.6,0-1.54-.08a50.34,50.34,0,0,1-15-3.37s0,0,0,0c2.78-3.52,7.06-9,10.55-13.64q4.41,0,8.83,0c2,0,2.79-.75,2.8-2.82,0-2.88,0-5.78,0-8.67A32.59,32.59,0,0,0,69.43,59.07c.5-1,.93-1.93,1.3-2.83a16.57,16.57,0,0,1,.73,5.08c0,5.91,0,11.81,0,17.71-10,7.28-14.14,10.62-11.19,12.16,2.79,1.47,8.24-5,11.85-6.68A2.59,2.59,0,0,0,74,85.11Z" transform="translate(-1.5 -0.28)"/><path class="cls-3" d="M95.73,24.25h0a24.39,24.39,0,0,0-4.91,12.36c-.7,6.72-.47,17.63-4.74,27.06,0-1.24,0-2.48,0-3.72a32.33,32.33,0,0,0-1.87-11.64,13.36,13.36,0,0,0-9-8.5,19.55,19.55,0,0,0-3-.6c-.49-3.29-.9-6.33.38-9.89C75.18,22.05,80,15.85,81.19,9.11c.74.5,1.45,1,2.16,1.54s1.38,1.09,2.06,1.65,1.33,1.16,2,1.77l.71.68.39.39a.24.24,0,0,1,.1.1,5,5,0,0,1,.4.4.08.08,0,0,1,0,0c.18.19.36.37.53.56s.41.43.6.64A50.43,50.43,0,0,1,93.5,21c.39.54.77,1.08,1.14,1.63S95.38,23.69,95.73,24.25Z" transform="translate(-1.5 -0.28)"/><path class="cls-4" d="M74,85.11h.6c-.58,2.66-9.35,10.78-14.28,16.57q-1,.15-2,.27a0,0,0,0,0,0,0c-.65.07-1.31.14-2,.19s-1.06.08-1.59.1h-.55c-.36,0-.71,0-1.05,0-.67,0-1.34,0-2,0H51l-.6,0-1.54-.08a50.34,50.34,0,0,1-15-3.37s0,0,0,0c2.78-3.52,7.06-9,10.55-13.64q4.41,0,8.83,0c2,0,2.79-.75,2.8-2.82,0-2.88,0-5.78,0-8.67A32.59,32.59,0,0,0,69.43,59.07c.5-1,.93-1.93,1.3-2.83a16.57,16.57,0,0,1,.73,5.08c0,5.91,0,11.81,0,17.71-10,7.28-14.14,10.62-11.19,12.16,2.79,1.47,8.24-5,11.85-6.68A2.59,2.59,0,0,0,74,85.11Z" transform="translate(-1.5 -0.28)"/><path class="cls-4" d="M95.73,24.25h0a24.39,24.39,0,0,0-4.91,12.36c-.7,6.72-.47,17.63-4.74,27.06,0-1.24,0-2.48,0-3.72a32.33,32.33,0,0,0-1.87-11.64,13.36,13.36,0,0,0-9-8.5,19.55,19.55,0,0,0-3-.6c-.49-3.29-.9-6.33.38-9.89C75.18,22.05,80,15.85,81.19,9.11c.74.5,1.45,1,2.16,1.54s1.38,1.09,2.06,1.65,1.33,1.16,2,1.77l.71.68.39.39a.24.24,0,0,1,.1.1,5,5,0,0,1,.4.4.08.08,0,0,1,0,0c.18.19.36.37.53.56s.41.43.6.64A50.43,50.43,0,0,1,93.5,21c.39.54.77,1.08,1.14,1.63S95.38,23.69,95.73,24.25Z" transform="translate(-1.5 -0.28)"/><path class="cls-4" d="M21,44.18v11a1.76,1.76,0,0,1-.33,0c-1.86-.3-2.9-3.22-2.29-6.39A7.23,7.23,0,0,1,21,44.18Z" transform="translate(-1.5 -0.28)"/><path class="cls-5" d="M23.81,85.11c-2,0-2.84-.84-2.84-2.84v-10a55.23,55.23,0,0,1-9.26,9.66,0,0,0,0,1,0,0c.89,1.18,1.83,2.34,2.82,3.43l.76.83a42.74,42.74,0,0,0,3.19,3.12l.84.73c.41.37.84.72,1.27,1.06.24.2.5.41.76.6l.26.2h0a41.22,41.22,0,0,0,7.18-6.74Zm46-81.71a51.8,51.8,0,0,0-13.7-3h0C50.21,16,42.14,15.06,36.17,22.15A9.19,9.19,0,0,1,31,35.43a15.76,15.76,0,0,0,.68,4.32h.8c1.93,0,2.77.84,2.77,2.8q0,9.95,0,19.9c0,4.68,0,9.35,0,14a30.13,30.13,0,0,1,6.44-7.33q0-10.3,0-20.62c-1.43-1.65-2-4.77-1.4-8.12.87-4.63,3.79-7.93,6.52-7.42,2.21.41,3.61,3.24,3.57,6.77h3.11A2.25,2.25,0,0,1,56,42.27c0,.91,0,1.84,0,2.77a22.05,22.05,0,0,1,3.44-3.27c-.65-5.82-2.09-11.52,1.08-18C63.9,16.9,67.82,9.61,69.84,3.4Z" transform="translate(-1.5 -0.28)"/><path class="cls-5" d="M87.16,79.15a9.18,9.18,0,0,1-1.07,1.36V72.05a2.34,2.34,0,0,1,1.49.36C89.16,73.48,88.93,76.46,87.16,79.15Z" transform="translate(-1.5 -0.28)"/></svg>