<svg id="Camada_1" data-name="Camada 1" xmlns="http://www.w3.org/2000/svg" viewBox="0 0 96.05 102"><defs><style>.cls-1,.cls-3{fill:#407bff;}.cls-2{fill:#fca311;}.cls-3,.cls-4{opacity:0.2;isolation:isolate;}.cls-5{fill:#7a4d0a;}</style></defs><circle class="cls-1" cx="19.15" cy="22.23" r="7.33"/><circle class="cls-2" cx="19.15" cy="22.23" r="7.33"/><path class="cls-3" d="M27.74,16.44a20.61,20.61,0,0,1-1.24,2.91c-.46,1.3.63,2.13-.45,4.28s-2.35,2-3.07,3c-.5.71-1.49,2-2,2.69a7.34,7.34,0,0,0,3.8.41c.8-.94,2.32-2.32,2-2.49-.45-.25-1.53,1.25-2,1s.39-.87,2.38-2.31,1.86-4.13,2-5.54a3.5,3.5,0,0,1,.7-1.78A7.36,7.36,0,0,0,27.74,16.44Z" transform="translate(-4.47 -0.28)"/><path class="cls-4" d="M27.74,16.44a20.61,20.61,0,0,1-1.24,2.91c-.46,1.3.63,2.13-.45,4.28s-2.35,2-3.07,3c-.5.71-1.49,2-2,2.69a7.34,7.34,0,0,0,3.8.41c.8-.94,2.32-2.32,2-2.49-.45-.25-1.53,1.25-2,1s.39-.87,2.38-2.31,1.86-4.13,2-5.54a3.5,3.5,0,0,1,.7-1.78A7.36,7.36,0,0,0,27.74,16.44Z" transform="translate(-4.47 -0.28)"/><path class="cls-4" d="M19.35,21.42c.27,0,.42.46.33.92s-.37.77-.64.73-.42-.46-.33-.92S19.08,21.37,19.35,21.42Z" transform="translate(-4.47 -0.28)"/><path class="cls-5" d="M24.14,15.19c-1,2.73-2.52,1.94-3.37,4s1.12,2.11-.58,4.78a11.46,11.46,0,0,1-2.44,3,7.45,7.45,0,0,0,1.43,1.43,7.85,7.85,0,0,0,1.93-2.17c1.31-2,1.81-1,3-2.78s-.21-3.11.64-4.84a25.4,25.4,0,0,0,1.33-2.93A7.79,7.79,0,0,0,24.14,15.19Zm-.86,6c-.13.67-.54,1.14-.94,1.07s-.6-.67-.47-1.34.54-1.14.93-1.06S23.41,20.55,23.28,21.21Z" transform="translate(-4.47 -0.28)"/><path class="cls-5" d="M28.66,25.55c.23.15.2.58-.06,1s-.65.59-.88.43-.19-.59.06-1S28.44,25.39,28.66,25.55Z" transform="translate(-4.47 -0.28)"/><circle class="cls-1" cx="19.15" cy="79.89" r="7.33"/><circle class="cls-2" cx="19.15" cy="79.89" r="7.33"/><path class="cls-3" d="M27.74,74.11A20.61,20.61,0,0,1,26.5,77c-.46,1.3.63,2.13-.45,4.27s-2.35,2-3.07,3c-.5.71-1.49,2-2,2.68a7.35,7.35,0,0,0,3.8.42c.8-1,2.32-2.33,2-2.5-.45-.24-1.53,1.25-2,1s.39-.87,2.38-2.31,1.86-4.13,2-5.54a3.54,3.54,0,0,1,.7-1.78A7.21,7.21,0,0,0,27.74,74.11Z" transform="translate(-4.47 -0.28)"/><path class="cls-4" d="M27.74,74.11A20.61,20.61,0,0,1,26.5,77c-.46,1.3.63,2.13-.45,4.27s-2.35,2-3.07,3c-.5.71-1.49,2-2,2.68a7.35,7.35,0,0,0,3.8.42c.8-1,2.32-2.33,2-2.5-.45-.24-1.53,1.25-2,1s.39-.87,2.38-2.31,1.86-4.13,2-5.54a3.54,3.54,0,0,1,.7-1.78A7.21,7.21,0,0,0,27.74,74.11Z" transform="translate(-4.47 -0.28)"/><path class="cls-4" d="M19.35,79.08c.27,0,.42.46.33.92s-.37.78-.64.73-.42-.46-.33-.91S19.08,79,19.35,79.08Z" transform="translate(-4.47 -0.28)"/><path class="cls-5" d="M24.14,72.86c-1,2.72-2.52,1.94-3.37,4s1.12,2.1-.58,4.77a11.46,11.46,0,0,1-2.44,3A7.18,7.18,0,0,0,19.18,86a7.69,7.69,0,0,0,1.93-2.17c1.31-2,1.81-1,3-2.77s-.21-3.12.64-4.85a25.3,25.3,0,0,0,1.33-2.92A7,7,0,0,0,24.14,72.86Zm-.86,6c-.13.66-.54,1.14-.94,1.06s-.6-.67-.47-1.33.54-1.14.93-1.07S23.41,78.21,23.28,78.88Z" transform="translate(-4.47 -0.28)"/><path class="cls-5" d="M28.66,83.21c.23.15.2.58-.06,1s-.65.58-.88.42-.19-.58.06-1S28.44,83.06,28.66,83.21Z" transform="translate(-4.47 -0.28)"/><circle class="cls-1" cx="7.33" cy="50.94" r="7.33"/><circle class="cls-2" cx="7.33" cy="50.94" r="7.33"/><path class="cls-3" d="M15.93,45.16a21.85,21.85,0,0,1-1.24,2.91c-.47,1.3.63,2.13-.45,4.27s-2.36,2-3.07,3c-.5.71-1.49,2-2.05,2.68a7.28,7.28,0,0,0,3.81.42c.8-.95,2.32-2.33,2-2.49s-1.52,1.24-2,1,.38-.86,2.38-2.31,1.86-4.13,2-5.53A3.48,3.48,0,0,1,18,47.34,7.25,7.25,0,0,0,15.93,45.16Z" transform="translate(-4.47 -0.28)"/><path class="cls-4" d="M15.93,45.16a21.85,21.85,0,0,1-1.24,2.91c-.47,1.3.63,2.13-.45,4.27s-2.36,2-3.07,3c-.5.71-1.49,2-2.05,2.68a7.28,7.28,0,0,0,3.81.42c.8-.95,2.32-2.33,2-2.49s-1.52,1.24-2,1,.38-.86,2.38-2.31,1.86-4.13,2-5.53A3.48,3.48,0,0,1,18,47.34,7.25,7.25,0,0,0,15.93,45.16Z" transform="translate(-4.47 -0.28)"/><path class="cls-4" d="M7.54,50.14c.27,0,.42.46.33.91s-.38.78-.65.74-.41-.47-.32-.92S7.27,50.09,7.54,50.14Z" transform="translate(-4.47 -0.28)"/><path class="cls-5" d="M12.32,43.91c-1,2.72-2.52,1.94-3.37,4s1.12,2.1-.58,4.77a11.31,11.31,0,0,1-2.43,3,6.92,6.92,0,0,0,1.42,1.44A7.93,7.93,0,0,0,9.3,54.88c1.31-2,1.81-1,3-2.77S12.12,49,13,47.27a26.36,26.36,0,0,0,1.34-2.93A7.46,7.46,0,0,0,12.32,43.91Zm-.85,6c-.13.66-.55,1.14-.94,1.07s-.6-.68-.48-1.34.55-1.14.94-1.07S11.6,49.27,11.47,49.93Z" transform="translate(-4.47 -0.28)"/><path class="cls-5" d="M16.85,54.26c.23.16.19.58-.06,1s-.65.58-.88.42-.19-.58.06-1S16.62,54.11,16.85,54.26Z" transform="translate(-4.47 -0.28)"/><circle class="cls-1" cx="88.72" cy="50.94" r="7.33"/><circle class="cls-2" cx="88.72" cy="50.94" r="7.33"/><path class="cls-3" d="M97.32,45.16a23.25,23.25,0,0,1-1.24,2.91c-.47,1.3.63,2.13-.45,4.27s-2.36,2-3.08,3c-.49.71-1.48,2-2,2.68a7.26,7.26,0,0,0,3.8.42c.81-.95,2.33-2.33,2-2.49s-1.52,1.24-2,1,.39-.86,2.39-2.31,1.85-4.13,2-5.53a3.48,3.48,0,0,1,.71-1.78A7.25,7.25,0,0,0,97.32,45.16Z" transform="translate(-4.47 -0.28)"/><path class="cls-4" d="M97.32,45.16a23.25,23.25,0,0,1-1.24,2.91c-.47,1.3.63,2.13-.45,4.27s-2.36,2-3.08,3c-.49.71-1.48,2-2,2.68a7.26,7.26,0,0,0,3.8.42c.81-.95,2.33-2.33,2-2.49s-1.52,1.24-2,1,.39-.86,2.39-2.31,1.85-4.13,2-5.53a3.48,3.48,0,0,1,.71-1.78A7.25,7.25,0,0,0,97.32,45.16Z" transform="translate(-4.47 -0.28)"/><path class="cls-4" d="M88.93,50.14c.27,0,.41.46.33.91s-.38.78-.65.74-.41-.47-.33-.92S88.65,50.09,88.93,50.14Z" transform="translate(-4.47 -0.28)"/><path class="cls-5" d="M93.71,43.91c-1,2.72-2.52,1.94-3.37,4s1.12,2.1-.58,4.77a11.52,11.52,0,0,1-2.43,3,6.92,6.92,0,0,0,1.42,1.44,7.93,7.93,0,0,0,1.94-2.18c1.3-2,1.8-1,3-2.77s-.2-3.12.64-4.84a26.36,26.36,0,0,0,1.34-2.93A7.46,7.46,0,0,0,93.71,43.91Zm-.86,6c-.12.66-.54,1.14-.93,1.07s-.61-.68-.48-1.34.55-1.14.94-1.07S93,49.27,92.85,49.93Z" transform="translate(-4.47 -0.28)"/><path class="cls-5" d="M98.24,54.26c.22.16.19.58-.06,1s-.66.58-.88.42-.2-.58.06-1S98,54.11,98.24,54.26Z" transform="translate(-4.47 -0.28)"/><circle class="cls-1" cx="76.8" cy="22.23" r="7.33"/><circle class="cls-2" cx="76.8" cy="22.23" r="7.33"/><path class="cls-3" d="M85.4,16.44a23.25,23.25,0,0,1-1.24,2.91c-.47,1.3.63,2.13-.45,4.28s-2.36,2-3.08,3c-.49.71-1.48,2-2,2.69a7.35,7.35,0,0,0,3.8.41c.81-.94,2.33-2.32,2-2.49s-1.52,1.25-2,1,.39-.87,2.39-2.31,1.85-4.13,2-5.54a3.52,3.52,0,0,1,.71-1.78A7.49,7.49,0,0,0,85.4,16.44Z" transform="translate(-4.47 -0.28)"/><path class="cls-4" d="M85.4,16.44a23.25,23.25,0,0,1-1.24,2.91c-.47,1.3.63,2.13-.45,4.28s-2.36,2-3.08,3c-.49.71-1.48,2-2,2.69a7.35,7.35,0,0,0,3.8.41c.81-.94,2.33-2.32,2-2.49s-1.52,1.25-2,1,.39-.87,2.39-2.31,1.85-4.13,2-5.54a3.52,3.52,0,0,1,.71-1.78A7.49,7.49,0,0,0,85.4,16.44Z" transform="translate(-4.47 -0.28)"/><path class="cls-4" d="M77,21.42c.27,0,.41.46.33.92s-.38.77-.65.73-.42-.46-.33-.92S76.73,21.37,77,21.42Z" transform="translate(-4.47 -0.28)"/><path class="cls-5" d="M81.79,15.19c-1,2.73-2.52,1.94-3.37,4s1.12,2.11-.58,4.78a11.52,11.52,0,0,1-2.43,3,7.13,7.13,0,0,0,1.42,1.43,8,8,0,0,0,1.94-2.17c1.3-2,1.8-1,3-2.78s-.2-3.11.64-4.84a25.55,25.55,0,0,0,1.34-2.93A8,8,0,0,0,81.79,15.19Zm-.86,6c-.12.67-.54,1.14-.93,1.07s-.61-.67-.48-1.34.55-1.14.94-1.06S81.06,20.55,80.93,21.21Z" transform="translate(-4.47 -0.28)"/><path class="cls-5" d="M86.32,25.55c.22.15.19.58-.06,1s-.66.59-.88.43-.2-.59.06-1S86.09,25.39,86.32,25.55Z" transform="translate(-4.47 -0.28)"/><circle class="cls-1" cx="76.8" cy="79.93" r="7.33"/><circle class="cls-2" cx="76.8" cy="79.93" r="7.33"/><path class="cls-3" d="M85.4,74.15a22.53,22.53,0,0,1-1.24,2.9c-.47,1.3.63,2.14-.45,4.28s-2.36,2-3.08,3c-.49.7-1.48,2-2,2.68a7.36,7.36,0,0,0,3.8.42c.81-.95,2.33-2.33,2-2.5s-1.52,1.25-2,1,.39-.87,2.39-2.31,1.85-4.13,2-5.54a3.55,3.55,0,0,1,.71-1.78A7.33,7.33,0,0,0,85.4,74.15Z" transform="translate(-4.47 -0.28)"/><path class="cls-4" d="M85.4,74.15a22.53,22.53,0,0,1-1.24,2.9c-.47,1.3.63,2.14-.45,4.28s-2.36,2-3.08,3c-.49.7-1.48,2-2,2.68a7.36,7.36,0,0,0,3.8.42c.81-.95,2.33-2.33,2-2.5s-1.52,1.25-2,1,.39-.87,2.39-2.31,1.85-4.13,2-5.54a3.55,3.55,0,0,1,.71-1.78A7.33,7.33,0,0,0,85.4,74.15Z" transform="translate(-4.47 -0.28)"/><path class="cls-4" d="M77,79.12c.27,0,.41.46.33.92s-.38.78-.65.73-.42-.46-.33-.92S76.73,79.08,77,79.12Z" transform="translate(-4.47 -0.28)"/><path class="cls-5" d="M81.79,72.9c-1,2.72-2.52,1.94-3.37,4s1.12,2.11-.58,4.78a11.52,11.52,0,0,1-2.43,3A7.13,7.13,0,0,0,76.83,86a7.83,7.83,0,0,0,1.94-2.17c1.3-2,1.8-1,3-2.77s-.2-3.12.64-4.85a25.45,25.45,0,0,0,1.34-2.92A7.16,7.16,0,0,0,81.79,72.9Zm-.86,6c-.12.67-.54,1.15-.93,1.07s-.61-.67-.48-1.33.55-1.14.94-1.07S81.06,78.25,80.93,78.91Z" transform="translate(-4.47 -0.28)"/><path class="cls-5" d="M86.32,83.25c.22.15.19.58-.06,1s-.66.58-.88.42-.2-.58.06-1S86.09,83.1,86.32,83.25Z" transform="translate(-4.47 -0.28)"/><circle class="cls-1" cx="48.14" cy="7.33" r="7.33"/><circle class="cls-2" cx="48.14" cy="7.33" r="7.33"/><path class="cls-3" d="M56.74,1.55A23.25,23.25,0,0,1,55.5,4.46c-.47,1.3.63,2.13-.45,4.27s-2.36,2-3.08,3c-.49.71-1.48,2-2,2.68a7.36,7.36,0,0,0,3.8.42c.81-.95,2.33-2.33,2-2.49s-1.52,1.24-2,1,.39-.87,2.39-2.31,1.85-4.13,2-5.54a3.48,3.48,0,0,1,.71-1.77A7.25,7.25,0,0,0,56.74,1.55Z" transform="translate(-4.47 -0.28)"/><path class="cls-4" d="M56.74,1.55A23.25,23.25,0,0,1,55.5,4.46c-.47,1.3.63,2.13-.45,4.27s-2.36,2-3.08,3c-.49.71-1.48,2-2,2.68a7.36,7.36,0,0,0,3.8.42c.81-.95,2.33-2.33,2-2.49s-1.52,1.24-2,1,.39-.87,2.39-2.31,1.85-4.13,2-5.54a3.48,3.48,0,0,1,.71-1.77A7.25,7.25,0,0,0,56.74,1.55Z" transform="translate(-4.47 -0.28)"/><path class="cls-4" d="M48.35,6.52c.26.05.41.47.32.92s-.37.78-.64.74-.42-.47-.33-.92S48.07,6.48,48.35,6.52Z" transform="translate(-4.47 -0.28)"/><path class="cls-5" d="M53.13.3c-1,2.72-2.52,1.94-3.37,4s1.12,2.1-.58,4.77a11.52,11.52,0,0,1-2.43,3,7.18,7.18,0,0,0,1.42,1.44,8.1,8.1,0,0,0,1.94-2.18c1.3-2,1.8-1,3-2.77s-.2-3.12.64-4.85A27.28,27.28,0,0,0,55.11.73,7.54,7.54,0,0,0,53.13.3Zm-.86,6c-.12.66-.54,1.14-.93,1.06s-.61-.67-.48-1.33.55-1.14.94-1.07S52.4,5.65,52.27,6.32Z" transform="translate(-4.47 -0.28)"/><path class="cls-5" d="M57.66,10.65c.22.15.19.58-.06,1s-.66.58-.88.42-.2-.58.06-1S57.43,10.5,57.66,10.65Z" transform="translate(-4.47 -0.28)"/><circle class="cls-1" cx="48.14" cy="94.67" r="7.33"/><circle class="cls-2" cx="48.14" cy="94.67" r="7.33"/><path class="cls-3" d="M56.74,88.88a23.25,23.25,0,0,1-1.24,2.91c-.47,1.3.63,2.13-.45,4.27s-2.36,2-3.08,3c-.49.71-1.48,2-2,2.68a7.26,7.26,0,0,0,3.8.42c.81-1,2.33-2.32,2-2.49s-1.52,1.24-2,1,.39-.86,2.39-2.31,1.85-4.13,2-5.53a3.48,3.48,0,0,1,.71-1.78A7.36,7.36,0,0,0,56.74,88.88Z" transform="translate(-4.47 -0.28)"/><path class="cls-4" d="M56.74,88.88a23.25,23.25,0,0,1-1.24,2.91c-.47,1.3.63,2.13-.45,4.27s-2.36,2-3.08,3c-.49.71-1.48,2-2,2.68a7.26,7.26,0,0,0,3.8.42c.81-1,2.33-2.32,2-2.49s-1.52,1.24-2,1,.39-.86,2.39-2.31,1.85-4.13,2-5.53a3.48,3.48,0,0,1,.71-1.78A7.36,7.36,0,0,0,56.74,88.88Z" transform="translate(-4.47 -0.28)"/><path class="cls-4" d="M48.35,93.86c.26,0,.41.46.32.92s-.37.77-.64.73-.42-.46-.33-.92S48.07,93.81,48.35,93.86Z" transform="translate(-4.47 -0.28)"/><path class="cls-5" d="M53.13,87.63c-1,2.72-2.52,1.94-3.37,4s1.12,2.11-.58,4.78a11.52,11.52,0,0,1-2.43,3,7.13,7.13,0,0,0,1.42,1.43,8,8,0,0,0,1.94-2.17c1.3-2,1.8-1,3-2.78s-.2-3.12.64-4.84a28.32,28.32,0,0,0,1.34-2.93A7.54,7.54,0,0,0,53.13,87.63Zm-.86,6c-.12.66-.54,1.14-.93,1.07s-.61-.67-.48-1.34.55-1.14.94-1.07S52.4,93,52.27,93.65Z" transform="translate(-4.47 -0.28)"/><path class="cls-5" d="M57.66,98c.22.16.19.58-.06,1s-.66.58-.88.42-.2-.58.06-1S57.43,97.83,57.66,98Z" transform="translate(-4.47 -0.28)"/><circle class="cls-1" cx="48.01" cy="31.19" r="7.33"/><circle class="cls-2" cx="48.01" cy="31.19" r="7.33"/><path class="cls-3" d="M56.61,25.41a23.25,23.25,0,0,1-1.24,2.91c-.47,1.3.62,2.13-.46,4.27s-2.35,2-3.07,3c-.5.71-1.49,2-2,2.68a7.26,7.26,0,0,0,3.8.42c.8-.95,2.33-2.33,2-2.49s-1.53,1.24-2,1S54,36.35,56,34.9s1.86-4.13,2-5.53a3.47,3.47,0,0,1,.7-1.78A7.1,7.1,0,0,0,56.61,25.41Z" transform="translate(-4.47 -0.28)"/><path class="cls-4" d="M56.61,25.41a23.25,23.25,0,0,1-1.24,2.91c-.47,1.3.62,2.13-.46,4.27s-2.35,2-3.07,3c-.5.71-1.49,2-2,2.68a7.26,7.26,0,0,0,3.8.42c.8-.95,2.33-2.33,2-2.49s-1.53,1.24-2,1S54,36.35,56,34.9s1.86-4.13,2-5.53a3.47,3.47,0,0,1,.7-1.78A7.1,7.1,0,0,0,56.61,25.41Z" transform="translate(-4.47 -0.28)"/><path class="cls-4" d="M48.21,30.39c.27.05.42.46.33.91s-.37.78-.64.74-.42-.47-.33-.92S47.94,30.34,48.21,30.39Z" transform="translate(-4.47 -0.28)"/><path class="cls-5" d="M53,24.16c-1,2.72-2.52,1.94-3.37,4s1.12,2.1-.58,4.78a11.53,11.53,0,0,1-2.44,2.95A7.23,7.23,0,0,0,48,37.31,7.93,7.93,0,0,0,50,35.13c1.3-2,1.8-1,3-2.77s-.21-3.12.64-4.84A26.19,26.19,0,0,0,55,24.59,7.38,7.38,0,0,0,53,24.16Zm-.86,6c-.12.66-.54,1.14-.93,1.07s-.61-.68-.48-1.34.54-1.14.94-1.07S52.27,29.52,52.14,30.18Z" transform="translate(-4.47 -0.28)"/><path class="cls-5" d="M57.52,34.51c.23.16.2.58-.06,1s-.65.58-.88.42-.19-.58.06-1S57.3,34.36,57.52,34.51Z" transform="translate(-4.47 -0.28)"/><circle class="cls-1" cx="48.01" cy="70.82" r="7.33"/><circle class="cls-2" cx="48.01" cy="70.82" r="7.33"/><path class="cls-3" d="M56.61,65a23.25,23.25,0,0,1-1.24,2.91c-.47,1.3.62,2.13-.46,4.28s-2.35,2-3.07,3c-.5.71-1.49,2-2,2.69a7.35,7.35,0,0,0,3.8.41c.8-1,2.33-2.32,2-2.49s-1.53,1.24-2,1S54,76,56,74.53,57.84,70.4,58,69a3.5,3.5,0,0,1,.7-1.78A7.21,7.21,0,0,0,56.61,65Z" transform="translate(-4.47 -0.28)"/><path class="cls-4" d="M56.61,65a23.25,23.25,0,0,1-1.24,2.91c-.47,1.3.62,2.13-.46,4.28s-2.35,2-3.07,3c-.5.71-1.49,2-2,2.69a7.35,7.35,0,0,0,3.8.41c.8-1,2.33-2.32,2-2.49s-1.53,1.24-2,1S54,76,56,74.53,57.84,70.4,58,69a3.5,3.5,0,0,1,.7-1.78A7.21,7.21,0,0,0,56.61,65Z" transform="translate(-4.47 -0.28)"/><path class="cls-4" d="M48.21,70c.27,0,.42.46.33.92s-.37.77-.64.73-.42-.46-.33-.92S47.94,70,48.21,70Z" transform="translate(-4.47 -0.28)"/><path class="cls-5" d="M53,63.78c-1,2.73-2.52,1.94-3.37,4s1.12,2.11-.58,4.78a11.46,11.46,0,0,1-2.44,3A7.45,7.45,0,0,0,48,76.93,8,8,0,0,0,50,74.76c1.3-2,1.8-1,3-2.78s-.21-3.12.64-4.84A26.19,26.19,0,0,0,55,64.21,7.38,7.38,0,0,0,53,63.78Zm-.86,6c-.12.67-.54,1.14-.93,1.07s-.61-.67-.48-1.34.54-1.14.94-1.06S52.27,69.14,52.14,69.8Z" transform="translate(-4.47 -0.28)"/><path class="cls-5" d="M57.52,74.13c.23.16.2.59-.06,1s-.65.59-.88.42-.19-.58.06-1S57.3,74,57.52,74.13Z" transform="translate(-4.47 -0.28)"/><circle class="cls-1" cx="65.12" cy="60.8" r="7.33"/><circle class="cls-2" cx="65.12" cy="60.8" r="7.33"/><path class="cls-3" d="M73.72,55a21.85,21.85,0,0,1-1.24,2.91c-.47,1.3.63,2.13-.45,4.28s-2.36,2-3.07,3c-.5.71-1.49,2-2,2.69a7.38,7.38,0,0,0,3.81.41c.8-.94,2.32-2.32,2-2.49s-1.52,1.25-2,1,.38-.87,2.38-2.31S75,60.38,75.1,59a3.61,3.61,0,0,1,.71-1.78A7.49,7.49,0,0,0,73.72,55Z" transform="translate(-4.47 -0.28)"/><path class="cls-4" d="M73.72,55a21.85,21.85,0,0,1-1.24,2.91c-.47,1.3.63,2.13-.45,4.28s-2.36,2-3.07,3c-.5.71-1.49,2-2,2.69a7.38,7.38,0,0,0,3.81.41c.8-.94,2.32-2.32,2-2.49s-1.52,1.25-2,1,.38-.87,2.38-2.31S75,60.38,75.1,59a3.61,3.61,0,0,1,.71-1.78A7.49,7.49,0,0,0,73.72,55Z" transform="translate(-4.47 -0.28)"/><path class="cls-4" d="M65.33,60c.27,0,.42.46.33.92s-.38.77-.64.73-.42-.46-.33-.92S65.06,59.94,65.33,60Z" transform="translate(-4.47 -0.28)"/><path class="cls-5" d="M70.11,53.76c-1,2.73-2.52,1.94-3.36,4s1.12,2.11-.59,4.78a11.31,11.31,0,0,1-2.43,3,7.4,7.4,0,0,0,1.42,1.43,7.67,7.67,0,0,0,1.94-2.17c1.31-2,1.81-1,3-2.78s-.21-3.11.64-4.84a25.4,25.4,0,0,0,1.33-2.93A7.87,7.87,0,0,0,70.11,53.76Zm-.85,6c-.13.67-.55,1.14-.94,1.07s-.6-.67-.48-1.34.55-1.14.94-1.06S69.39,59.12,69.26,59.78Z" transform="translate(-4.47 -0.28)"/><path class="cls-5" d="M74.64,64.12c.23.15.19.58-.06,1s-.65.59-.88.43-.19-.59.06-1S74.41,64,74.64,64.12Z" transform="translate(-4.47 -0.28)"/><circle class="cls-1" cx="30.87" cy="41.22" r="7.33"/><circle class="cls-2" cx="30.87" cy="41.22" r="7.33"/><path class="cls-3" d="M39.46,35.44a20,20,0,0,1-1.24,2.9c-.46,1.3.63,2.14-.45,4.28s-2.35,2-3.07,3c-.5.71-1.49,2-2,2.69a7.35,7.35,0,0,0,3.8.42c.8-1,2.32-2.33,2-2.5s-1.53,1.25-2,1,.39-.87,2.38-2.31,1.86-4.13,2-5.54a3.5,3.5,0,0,1,.7-1.78A7.21,7.21,0,0,0,39.46,35.44Z" transform="translate(-4.47 -0.28)"/><path class="cls-4" d="M39.46,35.44a20,20,0,0,1-1.24,2.9c-.46,1.3.63,2.14-.45,4.28s-2.35,2-3.07,3c-.5.71-1.49,2-2,2.69a7.35,7.35,0,0,0,3.8.42c.8-1,2.32-2.33,2-2.5s-1.53,1.25-2,1,.39-.87,2.38-2.31,1.86-4.13,2-5.54a3.5,3.5,0,0,1,.7-1.78A7.21,7.21,0,0,0,39.46,35.44Z" transform="translate(-4.47 -0.28)"/><path class="cls-4" d="M31.07,40.41c.27.05.42.46.33.92s-.37.78-.64.73-.42-.46-.33-.92S30.8,40.37,31.07,40.41Z" transform="translate(-4.47 -0.28)"/><path class="cls-5" d="M35.86,34.19c-1,2.72-2.52,1.93-3.37,4s1.12,2.11-.58,4.78a11.46,11.46,0,0,1-2.44,3,7.45,7.45,0,0,0,1.43,1.43,7.85,7.85,0,0,0,1.93-2.17c1.31-2,1.81-1,3-2.77s-.21-3.12.64-4.85a25.3,25.3,0,0,0,1.33-2.92A7,7,0,0,0,35.86,34.19Zm-.86,6c-.13.67-.54,1.15-.94,1.07s-.6-.67-.47-1.34.54-1.13.93-1.06S35.13,39.54,35,40.2Z" transform="translate(-4.47 -0.28)"/><path class="cls-5" d="M40.38,44.54c.23.15.2.58-.06,1s-.65.58-.88.42-.19-.58.06-1S40.16,44.38,40.38,44.54Z" transform="translate(-4.47 -0.28)"/><circle class="cls-1" cx="65.12" cy="41.25" r="7.33"/><circle class="cls-2" cx="65.12" cy="41.25" r="7.33"/><path class="cls-3" d="M73.72,35.47a21.21,21.21,0,0,1-1.24,2.9c-.46,1.3.63,2.14-.45,4.28s-2.36,2-3.07,3c-.5.71-1.49,2-2,2.69a7.38,7.38,0,0,0,3.81.42c.8-1,2.32-2.33,2-2.5s-1.52,1.25-2,1S71.1,46.4,73.1,45s1.86-4.13,2-5.54a3.61,3.61,0,0,1,.71-1.78A7.21,7.21,0,0,0,73.72,35.47Z" transform="translate(-4.47 -0.28)"/><path class="cls-4" d="M73.72,35.47a21.21,21.21,0,0,1-1.24,2.9c-.46,1.3.63,2.14-.45,4.28s-2.36,2-3.07,3c-.5.71-1.49,2-2,2.69a7.38,7.38,0,0,0,3.81.42c.8-1,2.32-2.33,2-2.5s-1.52,1.25-2,1S71.1,46.4,73.1,45s1.86-4.13,2-5.54a3.61,3.61,0,0,1,.71-1.78A7.21,7.21,0,0,0,73.72,35.47Z" transform="translate(-4.47 -0.28)"/><path class="cls-4" d="M65.33,40.44c.27.05.42.46.33.92s-.38.78-.64.73-.42-.46-.33-.92S65.06,40.4,65.33,40.44Z" transform="translate(-4.47 -0.28)"/><path class="cls-5" d="M70.11,34.22c-1,2.72-2.52,1.93-3.36,4s1.12,2.11-.59,4.78a11.31,11.31,0,0,1-2.43,3,7.69,7.69,0,0,0,1.42,1.43,7.67,7.67,0,0,0,1.94-2.17c1.31-2,1.81-1,3-2.77s-.21-3.12.64-4.85a25.3,25.3,0,0,0,1.33-2.92A7.08,7.08,0,0,0,70.11,34.22Zm-.85,6c-.13.67-.55,1.15-.94,1.07s-.6-.67-.48-1.34.55-1.14.94-1.06S69.39,39.57,69.26,40.23Z" transform="translate(-4.47 -0.28)"/><path class="cls-5" d="M74.64,44.57c.23.15.2.58-.06,1s-.65.58-.88.42-.19-.58.06-1S74.41,44.41,74.64,44.57Z" transform="translate(-4.47 -0.28)"/><circle class="cls-1" cx="30.86" cy="60.77" r="7.33"/><circle class="cls-2" cx="30.86" cy="60.77" r="7.33"/><path class="cls-3" d="M39.46,55a21.75,21.75,0,0,1-1.24,2.9c-.47,1.3.63,2.14-.45,4.28s-2.36,2-3.08,3c-.49.71-1.48,2-2,2.69a7.36,7.36,0,0,0,3.8.42c.81-1,2.33-2.33,2-2.5s-1.52,1.25-2,1,.39-.87,2.39-2.31,1.86-4.13,2-5.54a3.52,3.52,0,0,1,.71-1.78A7.33,7.33,0,0,0,39.46,55Z" transform="translate(-4.47 -0.28)"/><path class="cls-4" d="M39.46,55a21.75,21.75,0,0,1-1.24,2.9c-.47,1.3.63,2.14-.45,4.28s-2.36,2-3.08,3c-.49.71-1.48,2-2,2.69a7.36,7.36,0,0,0,3.8.42c.81-1,2.33-2.33,2-2.5s-1.52,1.25-2,1,.39-.87,2.39-2.31,1.86-4.13,2-5.54a3.52,3.52,0,0,1,.71-1.78A7.33,7.33,0,0,0,39.46,55Z" transform="translate(-4.47 -0.28)"/><path class="cls-4" d="M31.07,60c.27,0,.41.46.33.92s-.38.78-.65.73-.41-.46-.33-.92S30.8,59.92,31.07,60Z" transform="translate(-4.47 -0.28)"/><path class="cls-5" d="M35.85,53.74c-1,2.72-2.52,1.93-3.37,4s1.12,2.11-.58,4.78a11.52,11.52,0,0,1-2.43,3,7.13,7.13,0,0,0,1.42,1.43,8,8,0,0,0,1.94-2.17c1.31-2,1.81-1,3-2.77s-.21-3.12.63-4.85a25.45,25.45,0,0,0,1.34-2.92A7.08,7.08,0,0,0,35.85,53.74Zm-.85,6c-.13.67-.55,1.15-.94,1.07s-.6-.67-.48-1.34.55-1.14.94-1.06S35.12,59.09,35,59.75Z" transform="translate(-4.47 -0.28)"/><path class="cls-5" d="M40.38,64.09c.23.15.19.58-.06,1s-.65.58-.88.42-.2-.58.06-1S40.15,63.93,40.38,64.09Z" transform="translate(-4.47 -0.28)"/></svg>