<svg id="Camada_1" data-name="Camada 1" xmlns="http://www.w3.org/2000/svg" viewBox="0 0 1080 1080"><defs><style>.cls-1,.cls-3{fill:#407bff;}.cls-2{fill:#fca311;}.cls-3,.cls-4{opacity:0.2;isolation:isolate;}.cls-5{fill:#7a4d0a;}.cls-6{fill:#772a08;}</style></defs><circle class="cls-1" cx="516.07" cy="518.73" r="324.67"/><circle class="cls-2" cx="516.07" cy="518.73" r="324.67"/><path class="cls-3" d="M698.73,250.27c-7.9,42.91-38.28,82.39-54.93,128.73-20.68,57.59,27.9,94.41-20,189.33s-104.37,88.4-136.12,134c-22,31.41-65.74,87.46-90.46,118.87a324.89,324.89,0,0,0,168.39,18.45c35.61-42,103-103,89.34-110.37-19.74-10.9-67.46,55.1-89.34,43.6s17.16-38.37,105.56-102.22,82.31-182.89,88.74-245.2a155.67,155.67,0,0,1,31.33-78.78A322.51,322.51,0,0,0,698.73,250.27Z"/><path class="cls-4" d="M698.73,250.27c-7.9,42.91-38.28,82.39-54.93,128.73-20.68,57.59,27.9,94.41-20,189.33s-104.37,88.4-136.12,134c-22,31.41-65.74,87.46-90.46,118.87a324.89,324.89,0,0,0,168.39,18.45c35.61-42,103-103,89.34-110.37-19.74-10.9-67.46,55.1-89.34,43.6s17.16-38.37,105.56-102.22,82.31-182.89,88.74-245.2a155.67,155.67,0,0,1,31.33-78.78A322.51,322.51,0,0,0,698.73,250.27Z"/><path class="cls-4" d="M327.11,470.58C339,472.81,345.57,491,341.7,511.26s-16.65,34.33-28.49,32.44S294.76,523.19,298.62,503,315.1,468.6,327.11,470.58Z"/><path class="cls-5" d="M538.93,194.91C493.44,315.49,427.36,280.73,389.76,371c-39.22,93.12,49.61,93.29-25.74,211.56-52.35,82.3-89.77,117.32-107.71,131a319.41,319.41,0,0,0,63,63.42c16.48-11.41,47.46-38.1,85.83-96.21,57.84-87.11,80-43.59,134-122.81s-9.19-138.09,28.23-214.56c21.29-43.6,46.26-90,59.14-129.51A326.39,326.39,0,0,0,538.93,194.91ZM501.08,461.39c-5.58,29.44-24.12,50.55-41.45,47.29s-26.78-29.78-21.2-59.22S462.63,399,480,402.26,506.74,432,501.08,461.39Z"/><path class="cls-5" d="M739.41,653.3c10,6.78,8.58,25.74-2.66,42.91s-28.92,25.74-39,18.62-8.59-25.75,2.66-42.91S729.37,646.52,739.41,653.3Z"/><path class="cls-6" d="M782.41,333.26c4.46,6.52,8.58,13.13,13,20.08,1.8,3,3.34,6.1,5,9.1,35.53-12,58.53-15,63.59-6.52,14.16,24-121.53,130.71-303.13,238.33S220.69,769.67,206.19,745.64c-5.07-8.58,8.58-27.12,36.22-52.52-1.81-2.92-3.87-5.75-5.67-8.58-4-7-7.72-14-11.33-21C77.11,768.21-13.61,852.32,1.67,878.07,25,917.38,284.89,806.4,582.18,630.21S1101.59,279.28,1078.33,240C1063,214.31,945.56,253.36,782.41,333.26Z"/></svg>