<?xml version="1.0" standalone="no"?>
<!DOCTYPE svg PUBLIC "-//W3C//DTD SVG 20010904//EN"
 "http://www.w3.org/TR/2001/REC-SVG-20010904/DTD/svg10.dtd">
<svg version="1.0" xmlns="http://www.w3.org/2000/svg"
 width="512.000000pt" height="512.000000pt" viewBox="0 0 512.000000 512.000000"
 preserveAspectRatio="xMidYMid meet">
<metadata>
Created by potrace 1.14, written by Peter Selinger 2001-2017
</metadata>
<g transform="translate(0.000000,512.000000) scale(0.100000,-0.100000)"
fill="#000000" stroke="none">
<path d="M1287 4599 c-120 -28 -220 -127 -251 -246 -9 -37 -12 -455 -11 -1813
l1 -1765 32 -66 c37 -77 91 -130 171 -168 l56 -26 1360 0 1360 0 56 26 c79 37
130 87 170 166 l34 67 1 1765 c1 1386 -2 1776 -12 1814 -27 101 -92 179 -192
225 l-57 27 -1340 1 c-751 1 -1357 -2 -1378 -7z m2464 -509 c3 -14 5 -486 2
-495 -2 -7 -364 -10 -1110 -10 l-1107 0 -1 245 c-1 135 2 250 6 255 8 10 2208
16 2210 5z m-1841 -875 c145 -79 181 -268 74 -393 -48 -57 -105 -85 -177 -88
-75 -3 -136 18 -187 66 -153 144 -81 394 127 438 43 9 124 -3 163 -23z m1706
-1 c50 -24 109 -96 125 -151 62 -218 -160 -406 -359 -304 -118 60 -172 223
-113 339 18 35 101 121 118 122 5 1 30 7 57 14 55 14 114 7 172 -20z m-855 -2
c183 -96 186 -350 5 -448 -100 -54 -224 -35 -303 46 -48 49 -67 97 -70 171 -1
53 3 75 25 119 64 127 218 178 343 112z m-853 -851 c91 -46 150 -156 138 -255
-22 -171 -199 -274 -355 -205 -214 94 -200 403 23 475 53 18 144 10 194 -15z
m859 -5 c121 -66 168 -217 105 -337 -105 -202 -395 -179 -469 37 -43 126 35
279 164 321 57 19 143 10 200 -21z m859 -2 c181 -106 164 -371 -29 -455 -41
-17 -64 -20 -117 -17 -73 6 -113 23 -159 69 -140 140 -76 380 114 430 53 14
142 1 191 -27z m-885 -836 c57 -25 114 -83 139 -140 42 -97 14 -217 -66 -288
-75 -65 -61 -64 -578 -65 -492 0 -527 2 -588 45 -182 126 -127 413 88 458 20
4 247 7 503 7 402 -1 471 -4 502 -17z m862 -6 c199 -88 199 -375 -2 -465 -121
-54 -275 2 -331 120 -46 97 -27 214 48 294 64 69 192 92 285 51z"/>
</g>
</svg>
