<svg xmlns="http://www.w3.org/2000/svg" viewBox="0 0 1920 1080"><defs><style>.cls-1{fill:#1d1135;}.cls-17,.cls-2,.cls-29,.cls-30{fill:#fca311;}.cls-25,.cls-3,.cls-4{fill:#407bff;}.cls-14,.cls-17,.cls-26,.cls-4,.cls-5{opacity:0.2;}.cls-11,.cls-15,.cls-17,.cls-21,.cls-24,.cls-25,.cls-26,.cls-4,.cls-5,.cls-9{isolation:isolate;}.cls-6{fill:#7a4d0a;}.cls-7{fill:#772a08;}.cls-8{fill:#2f1e59;}.cls-13,.cls-15,.cls-16,.cls-21,.cls-26,.cls-9{fill:#fff;}.cls-18,.cls-29,.cls-9{opacity:0.5;}.cls-10{fill:#263238;}.cls-11{opacity:0.1;}.cls-12{opacity:0.4;}.cls-15{opacity:0.04;}.cls-16{opacity:0.2;}.cls-19{fill:#b26c10;}.cls-20{fill:#43318c;}.cls-21,.cls-24,.cls-25{opacity:0.3;}.cls-22{fill:#ec9700;}.cls-23{fill:#875300;}.cls-27{fill:#ffd60a;}.cls-28{fill:#c9751b;}.cls-30{font-size:183.09px;font-family:Comfortaa-Bold, Comfortaa;font-weight:700;}.cls-31{letter-spacing:-0.04em;}.cls-32{letter-spacing:0em;}.cls-33{letter-spacing:-0.03em;}</style></defs><g id="Fundo"><rect class="cls-1" width="1920" height="1080"/></g><g id="Cat"><polygon class="cls-2" points="691.92 397.93 699.52 393.94 698.07 402.39 704.22 408.4 695.72 409.63 691.92 417.33 688.12 409.63 679.61 408.4 685.77 402.39 684.31 393.94 691.92 397.93"/><polygon class="cls-2" points="715 72.36 726 66.57 723.92 78.83 732.81 87.5 720.5 89.29 715 100.43 709.5 89.29 697.22 87.5 706.11 78.83 704 66.57 715 72.36"/><polygon class="cls-2" points="1387.42 469.73 1409.41 458.17 1405.22 482.66 1423 500 1398.41 503.59 1387.42 525.88 1376.42 503.59 1351.83 500 1369.61 482.66 1365.42 458.17 1387.42 469.73"/><polygon class="cls-2" points="1202.21 68.92 1216.63 61.34 1213.86 77.37 1225.51 88.73 1209.43 91.06 1202.21 105.66 1195.02 91.06 1178.93 88.73 1190.59 77.37 1187.82 61.34 1202.21 68.92"/><polygon class="cls-2" points="509.28 319.94 516.89 315.94 515.43 324.42 521.59 330.4 513.08 331.63 509.28 339.34 505.48 331.63 497 330.4 503.13 324.42 501.7 315.94 509.28 319.94"/><polygon class="cls-2" points="603.75 221.98 611.35 217.98 609.9 226.44 616.05 232.42 607.55 233.66 603.75 241.36 599.95 233.66 591.47 232.42 597.6 226.44 596.14 217.98 603.75 221.98"/><polygon class="cls-2" points="1331.78 146.96 1339.38 142.97 1337.93 151.42 1344.08 157.43 1335.58 158.64 1331.78 166.34 1327.97 158.64 1319.47 157.43 1325.63 151.42 1324.17 142.97 1331.78 146.96"/><polygon class="cls-2" points="1153.86 192.72 1161.47 188.72 1160.02 197.2 1166.17 203.18 1157.67 204.42 1153.86 212.12 1150.09 204.42 1141.58 203.18 1147.74 197.2 1146.28 188.72 1153.86 192.72"/><polygon class="cls-2" points="1162.22 152.32 1157.81 154.67 1158.66 149.72 1155.05 146.24 1160.02 145.51 1162.22 141.03 1164.45 145.51 1169.39 146.24 1165.81 149.72 1166.65 154.67 1162.22 152.32"/><polygon class="cls-2" points="888.53 118.36 884.1 120.71 884.95 115.77 881.36 112.28 886.33 111.55 888.53 107.07 890.76 111.55 895.7 112.28 892.12 115.77 892.96 120.71 888.53 118.36"/><polygon class="cls-2" points="1319.23 292.47 1326.84 288.47 1325.38 296.95 1331.54 302.93 1323.03 304.17 1319.23 311.87 1315.43 304.17 1306.95 302.93 1313.1 296.95 1311.65 288.47 1319.23 292.47"/><polygon class="cls-2" points="1239.83 742.52 1247.41 738.52 1245.96 746.98 1252.11 752.98 1243.61 754.22 1239.83 761.92 1236.03 754.22 1227.53 752.98 1233.68 746.98 1232.22 738.52 1239.83 742.52"/><polygon class="cls-2" points="1068.87 89.1 1076.64 85 1075.17 93.67 1081.46 99.8 1072.74 101.09 1068.87 108.96 1064.97 101.09 1056.25 99.8 1062.55 93.67 1061.07 85 1068.87 89.1"/><polygon class="cls-2" points="523.74 507.15 531.35 503.15 529.89 511.61 536.05 517.62 527.54 518.85 523.74 526.55 519.94 518.85 511.44 517.62 517.59 511.61 516.14 503.15 523.74 507.15"/><polygon class="cls-2" points="634 550.15 638.97 547.53 638.02 553.08 642.04 557 636.5 557.82 634 562.86 631.51 557.82 625.96 557 629.98 553.08 629.04 547.53 634 550.15"/><polygon class="cls-2" points="1372.86 625.99 1380.44 621.99 1378.99 630.44 1385.14 636.45 1376.66 637.69 1372.86 645.39 1369.06 637.69 1360.56 636.45 1366.71 630.44 1365.25 621.99 1372.86 625.99"/><polygon class="cls-2" points="1117.29 512.09 1124.89 508.1 1123.44 516.57 1129.59 522.56 1121.09 523.79 1117.29 531.49 1113.49 523.79 1105.01 522.56 1111.14 516.57 1109.68 508.1 1117.29 512.09"/><circle class="cls-3" cx="725.05" cy="219" r="91.63"/><circle class="cls-2" cx="725.05" cy="219" r="91.63"/><path class="cls-4" d="M776.6,143.23c-2.23,12.11-10.8,23.26-15.5,36.34-5.84,16.25,7.87,26.64-5.65,53.43S726,258,717,270.81c-6.2,8.87-18.56,24.69-25.53,33.55A91.63,91.63,0,0,0,739,309.57c10.05-11.85,29.07-29.07,25.22-31.15-5.57-3.08-19,15.55-25.22,12.3s4.85-10.82,29.79-28.85,23.23-51.61,25-69.2a43.92,43.92,0,0,1,8.84-22.24A91,91,0,0,0,776.6,143.23Z"/><path class="cls-5" d="M776.6,143.23c-2.23,12.11-10.8,23.26-15.5,36.34-5.84,16.25,7.87,26.64-5.65,53.43S726,258,717,270.81c-6.2,8.87-18.56,24.69-25.53,33.55A91.63,91.63,0,0,0,739,309.57c10.05-11.85,29.07-29.07,25.22-31.15-5.57-3.08-19,15.55-25.22,12.3s4.85-10.82,29.79-28.85,23.23-51.61,25-69.2a43.92,43.92,0,0,1,8.84-22.24A91,91,0,0,0,776.6,143.23Z"/><path class="cls-5" d="M671.72,205.41c3.36.63,5.2,5.77,4.11,11.48s-4.69,9.69-8,9.16-5.21-5.79-4.12-11.48S668.33,204.85,671.72,205.41Z"/><path class="cls-6" d="M731.5,127.61c-12.84,34-31.49,24.22-42.1,49.7-11.07,26.29,14,26.33-7.27,59.71-14.77,23.23-25.33,33.11-30.4,37a90.28,90.28,0,0,0,17.78,17.9c4.65-3.22,13.4-10.75,24.22-27.15,16.33-24.59,22.58-12.31,37.82-34.67s-2.6-39,8-60.55c6-12.31,13.05-25.41,16.68-36.55A92.08,92.08,0,0,0,731.5,127.61Zm-10.68,75.21c-1.58,8.31-6.81,14.27-11.7,13.35s-7.56-8.41-6-16.72,6.83-14.24,11.73-13.32S722.41,194.54,720.82,202.82Z"/><path class="cls-6" d="M788.08,257c2.84,1.91,2.42,7.27-.75,12.11s-8.16,7.27-11,5.26-2.42-7.27.75-12.11S785.25,255.07,788.08,257Z"/><path class="cls-7" d="M800.22,166.66c1.26,1.84,2.42,3.7,3.65,5.66.51.85,1,1.72,1.41,2.57,10-3.39,16.52-4.24,18-1.84,4,6.78-34.3,36.89-85.56,67.27s-96,49.51-100.08,42.72c-1.43-2.42,2.42-7.65,10.22-14.82-.51-.82-1.09-1.62-1.6-2.42-1.14-2-2.18-3.95-3.2-5.94-41.85,29.56-67.46,53.29-63.15,60.56,6.59,11.09,79.94-20.23,163.85-70s146.59-99.05,140-110.14C879.4,133.08,846.26,144.1,800.22,166.66Z"/><path class="cls-3" d="M1079.28,563.9c-28.75,1.8-62.83,202.62-94.17,190-13.28-5.32-25.12-51.32-34.35-102.53l-10.78,4c6.42,32.36,37.08,171.23,75.4,86.06,43.17-96,55.91-243.19,87.52-126.34l3.49-1.68S1097.43,562.77,1079.28,563.9Z"/><path class="cls-6" d="M1079.28,563.9c-28.75,1.8-62.83,202.62-94.17,190-13.28-5.32-25.12-51.32-34.35-102.53l-10.78,4c6.42,32.36,37.08,171.23,75.4,86.06,43.17-96,55.91-243.19,87.52-126.34l3.49-1.68S1097.43,562.77,1079.28,563.9Z"/><path class="cls-8" d="M1121.75,594.47s4.55-33.55,42.24-64.07,63.24-9.83,63.24-9.83l10.06,6.59.51,28.19-14.3,24.88L1188,608.45l-36.73,10.37-17.82-8Z"/><path class="cls-9" d="M1121.75,594.47s4.55-33.55,42.24-64.07,63.24-9.83,63.24-9.83l10.06,6.59.51,28.19-14.3,24.88L1188,608.45l-36.73,10.37-17.82-8Z"/><path class="cls-10" d="M1038.42,618l57.36,24.22,38.9-26.26-58.13-11.38a51.42,51.42,0,0,0-38.61,7.82h0a3.15,3.15,0,0,0,.48,5.6Z"/><path class="cls-10" d="M1111.26,726l-1-62.3,38.9-26.23L1137.9,695.6a51.37,51.37,0,0,1-21.8,32.87h0a3.14,3.14,0,0,1-4.84-2.47Z"/><path class="cls-6" d="M1038.42,618l57.36,24.22,38.9-26.26-58.13-11.38a51.42,51.42,0,0,0-38.61,7.82h0a3.15,3.15,0,0,0,.48,5.6Z"/><path class="cls-6" d="M1111.26,726l-1-62.3,38.9-26.23L1137.9,695.6a51.37,51.37,0,0,1-21.8,32.87h0a3.14,3.14,0,0,1-4.84-2.47Z"/><path class="cls-10" d="M1301.4,512.79a166.08,166.08,0,0,0-65.86,5.09l4.34,23.11-2.08,14.32-22.41,31.48-23,15.51L1160,615.13l-26.64-4.33-17.9-10.56c-12.58,11.7-25,24-36.34,36.06,4.43,7.66,9.26,15.36,14.54,23s10.48,15,15.93,22c49.73-19,107-49.44,130.08-65a165.71,165.71,0,0,0,67.63-94.74,7,7,0,0,0-5-8.59A6.68,6.68,0,0,0,1301.4,512.79Z"/><path class="cls-2" d="M1301.4,512.79a166.08,166.08,0,0,0-65.86,5.09l4.34,23.11-2.08,14.32-22.41,31.48-23,15.51L1160,615.13l-26.64-4.33-17.9-10.56c-12.58,11.7-25,24-36.34,36.06,4.43,7.66,9.26,15.36,14.54,23s10.48,15,15.93,22c49.73-19,107-49.44,130.08-65a165.71,165.71,0,0,0,67.63-94.74,7,7,0,0,0-5-8.59A6.68,6.68,0,0,0,1301.4,512.79Z"/><path class="cls-10" d="M1093.67,659.32c-4.84-7.08-9.2-14.15-13.37-21.22-4,4-7.92,8.06-11.65,12.11q5.31,9.1,11.46,18.26t12.67,17.47c5.11-2,10.31-4.07,15.55-6.28C1103.34,673.15,1098.42,666.36,1093.67,659.32Z"/><path class="cls-11" d="M1305.09,518.27c-20.67,21.58-50.12,46-84.78,69.42-22.53,15.19-75.09,48.64-119.06,74.87a3.43,3.43,0,0,0-1.16,4.72c0,.05.05.09.07.13l3.93,5.79a3.42,3.42,0,0,0,4.26,1.23C1155.8,653,1210.54,622,1233.17,606.61c33.72-22.72,58.47-52.64,72.25-83.86a4.84,4.84,0,0,0-.43-4.63Z"/><g class="cls-12"><path class="cls-13" d="M1123.83,605.08c-13.25,11.31-26.65,23.21-38.76,34.79a3.51,3.51,0,1,0,4.73,5.18h0c13.49-11.51,28.22-23.47,42.68-34.86Z"/><path class="cls-13" d="M1237.29,527.16l1.84,9.81A249.63,249.63,0,0,1,1303,515l-.75-1.09A187.39,187.39,0,0,0,1237.29,527.16Z"/></g><path class="cls-10" d="M1239.39,516.91q-6.12,1.61-12.11,3.66c5.4,12.52,6.88,23.52,4.51,33.28-3.39,14-15,27-35.37,39.78s-37.15,17.53-51.2,14.53a48.12,48.12,0,0,1-23.43-13.69q-4.65,4.24-9.27,8.6c24.56,24.49,53.29,24.64,90.61,1.26C1242.4,579.72,1254,552.2,1239.39,516.91Z"/><path class="cls-10" d="M1239.39,516.91q-6.12,1.61-12.11,3.66c5.4,12.52,6.88,23.52,4.51,33.28-3.39,14-15,27-35.37,39.78s-37.15,17.53-51.2,14.53a48.12,48.12,0,0,1-23.43-13.69q-4.65,4.24-9.27,8.6c24.56,24.49,53.29,24.64,90.61,1.26C1242.4,579.72,1254,552.2,1239.39,516.91Z"/><g class="cls-14"><path d="M1142.21,611.11a3.32,3.32,0,1,1-4.58-1l0,0A3.32,3.32,0,0,1,1142.21,611.11Z"/><path d="M1177.31,610.12a3.32,3.32,0,1,1-4.58-1,3.32,3.32,0,0,1,4.58,1Z"/><path d="M1210.42,591.76a3.3,3.3,0,1,1-4.55-1,3.28,3.28,0,0,1,4.55,1Z"/><path d="M1235.13,567.2a3.32,3.32,0,1,1-4.58-1h0a3.29,3.29,0,0,1,4.54,1Z"/><path d="M1240.7,532a3.32,3.32,0,1,1-4.58-1,3.32,3.32,0,0,1,4.58,1Z"/></g><path class="cls-6" d="M1246.35,515.27a208.71,208.71,0,0,0,38.05,56.41,166,166,0,0,0,22.91-50.12,7,7,0,0,0-5-8.6,7.88,7.88,0,0,0-.87-.17A166.64,166.64,0,0,0,1246.35,515.27Z"/><path class="cls-10" d="M1130,634.8c2.64,4-9.69,17-13.64,19.57s-49.54,28.78-52.2,24.83,38.61-36.33,42.56-39.09S1127.34,630.85,1130,634.8Z"/><path class="cls-6" d="M1130,634.8c2.64,4-9.69,17-13.64,19.57s-49.54,28.78-52.2,24.83,38.61-36.33,42.56-39.09S1127.34,630.85,1130,634.8Z"/><path class="cls-9" d="M1188,524.69a64.12,64.12,0,0,0-21,11.79c-31.07,25.2-34.83,52.88-34.83,52.88l2.76,3.85c3-10,11.68-31.22,36.12-51a71.47,71.47,0,0,1,19.62-11.65Z"/><path class="cls-9" d="M1200.81,522.73l1.31,4.84a38.54,38.54,0,0,1,16.59,1.55l-.34-1.43A32.84,32.84,0,0,0,1200.81,522.73Z"/><path class="cls-6" d="M861.4,487c-9.18-13.81-19-18.82-14.7-66.44s-46.53-57.87-63.25-41.84-3,45.3,30,49.35c0,0-28.85,139.44,40,109C864,532.41,875.55,508.19,861.4,487Z"/><path class="cls-15" d="M861.4,487c-9.18-13.81-19-18.82-14.7-66.44s-46.53-57.87-63.25-41.84-3,45.3,30,49.35c0,0-28.85,139.44,40,109C864,532.41,875.55,508.19,861.4,487Z"/><path class="cls-2" d="M812.93,422.2c-8.09-.92-36.11-14.36-15.23-28.75S846,425.84,812.93,422.2Z"/><path class="cls-2" d="M812.74,433.37c14.9.92,28.58-8.58,36.33-20.49,1.94-2.93-2.78-5.67-4.7-2.76-6.85,10.39-18.79,18.6-31.75,17.8-3.51-.22-3.49,5.23,0,5.45Z"/><path class="cls-16" d="M812.74,433.37c14.9.92,28.58-8.58,36.33-20.49,1.94-2.93-2.78-5.67-4.7-2.76-6.85,10.39-18.79,18.6-31.75,17.8-3.51-.22-3.49,5.23,0,5.45Z"/><path class="cls-16" d="M812.93,422.2c-8.09-.92-36.11-14.36-15.23-28.75S846,425.84,812.93,422.2Z"/><path class="cls-2" d="M784.59,397a8.36,8.36,0,0,1-5.52-2.78,7,7,0,0,1-.85-1.31c-.22-.44,0,0-.14-.41a1.64,1.64,0,0,0-1.5-1.26,21.6,21.6,0,0,0-.32,5.33,13.29,13.29,0,0,0,8.33,4.06C787,401,787,397.33,784.59,397Z"/><path class="cls-2" d="M792.66,385.24a10.73,10.73,0,0,1-.8-10.27,1.54,1.54,0,0,0,0-1.19,26.93,26.93,0,0,0-4.09,1.87,13.08,13.08,0,0,0,2.42,12.28C791.62,389.5,794.28,387.08,792.66,385.24Z"/><g class="cls-14"><path d="M784.59,397a8.36,8.36,0,0,1-5.52-2.78,7,7,0,0,1-.85-1.31c-.22-.44,0,0-.14-.41a1.64,1.64,0,0,0-1.5-1.26,21.6,21.6,0,0,0-.32,5.33,13.29,13.29,0,0,0,8.33,4.06C787,401,787,397.33,784.59,397Z"/><path d="M792.66,385.24a10.73,10.73,0,0,1-.8-10.27,1.54,1.54,0,0,0,0-1.19,26.93,26.93,0,0,0-4.09,1.87,13.08,13.08,0,0,0,2.42,12.28C791.62,389.5,794.28,387.08,792.66,385.24Z"/></g><path class="cls-11" d="M853.43,537c10.61-4.67,22.12-28.8,8-50.09-2.2-3.32-4.43-6.1-6.51-9.11a267.15,267.15,0,0,1-37,54.57C824.88,541.55,836,544.74,853.43,537Z"/><path class="cls-6" d="M815.48,655.15c5.93-17.37,8.18-120.82-54.41-49.22,0,0,5.6-91.12-35.22-67.34-45,26.26-1.62,45.76-9.42,97.55s39.9,15,39.9,15S785.54,742.84,815.48,655.15Z"/><path class="cls-15" d="M815.48,655.15c5.93-17.37,8.18-120.82-54.41-49.22,0,0,5.6-91.12-35.22-67.34-45,26.26-1.62,45.76-9.42,97.55s39.9,15,39.9,15S785.54,742.84,815.48,655.15Z"/><path class="cls-2" d="M716.77,544.79c-29.21,23.38,6.88,43.6-.29,91.35a45.73,45.73,0,0,0,0,18.57c.75,1.09,23.59,33.67,32-49.63C756.86,523.38,719.41,543.27,716.77,544.79Z"/><path class="cls-17" d="M716.77,544.79c-29.21,23.38,6.88,43.6-.29,91.35a45.73,45.73,0,0,0,0,18.57c.75,1.09,23.59,33.67,32-49.63C756.86,523.38,719.41,543.27,716.77,544.79Z"/><g class="cls-18"><path class="cls-13" d="M714.06,565.79l19.38-14.53c1.86-1.4,0-4.55-1.82-3.15l-19.38,14.53C710.38,564,712.24,567.2,714.06,565.79Z"/><path class="cls-13" d="M716.77,581.34l23.76-15.43c1.94-1.25,0-4.4-1.84-3.12l-23.76,15.43C713,579.48,714.78,582.63,716.77,581.34Z"/><path class="cls-13" d="M720.31,597.38,744.07,582c2-1.28.14-4.43-1.84-3.15l-23.76,15.43C716.53,595.51,718.47,598.66,720.31,597.38Z"/><path class="cls-13" d="M722.85,614.77,742.57,602c2-1.28.14-4.43-1.82-3.15L721,611.65c-2,1.26-.14,4.41,1.82,3.12Z"/><path class="cls-13" d="M723,631.22,740.17,620c1.94-1.26.12-4.41-1.84-3.13l-17.22,11.17c-1.94,1.28,0,4.43,1.84,3.15Z"/><path class="cls-13" d="M721.78,648.3,739,637.13c2-1.29,0-4.43-1.84-3.15L720,645.17c-2,1.26-.15,4.41,1.81,3.13Z"/></g><path class="cls-2" d="M761,602c.6,17.46-4.17,35.39-9.69,51.74-1.14,3.32,4.12,4.84,5.25,1.45,5.72-16.76,10.56-35.29,9.93-53.29-.12-3.51-5.57-3.54-5.45,0Z"/><g class="cls-14"><path class="cls-13" d="M761,602c.6,17.46-4.17,35.39-9.69,51.74-1.14,3.32,4.12,4.84,5.25,1.45,5.72-16.76,10.56-35.29,9.93-53.29-.12-3.51-5.57-3.54-5.45,0Z"/></g><path class="cls-11" d="M764.73,671.14c10.83,20.83,30.62,42.94,50.75-16,4.67-13.69,7-80.83-22.8-73.64a157.92,157.92,0,0,0-9.25,14C775.32,609.56,764.08,641.66,764.73,671.14Z"/><path class="cls-19" d="M982.78,518s58.14,142.76-89.62,204.29C764.78,775.8,770,638.9,786.58,603.63c19.72-41.93,80.73-99.31,81.56-154.23Z"/><path class="cls-6" d="M807.6,575.19c16.52-2,34.59,2.42,49.68,8.77,44.26,18.58,72,60.8,88.59,104.16,3.31,8.64,17.36,4.84,14-3.85-17.71-46.34-46.73-91-93.41-112-17.65-8-39.24-14-58.86-11.55-9.15,1.11-9.27,15.67,0,14.53Z"/><path class="cls-20" d="M1103.07,401.76a125.95,125.95,0,1,1-125.93-126,126,126,0,0,1,125.93,126Z"/><path class="cls-21" d="M1103.07,401.76a125.95,125.95,0,1,1-125.93-126,126,126,0,0,1,125.93,126Z"/><path class="cls-8" d="M991.09,515a114,114,0,0,0,100.06-113.19v-2.42A32.82,32.82,0,0,0,1059,367.17h-1.91A114.57,114.57,0,0,0,942.48,481.74h0v1.94a32.85,32.85,0,0,0,32.16,32.19h2.42A115.43,115.43,0,0,0,991.09,515Z"/><path class="cls-21" d="M991.09,515a114,114,0,0,0,100.06-113.19v-2.42A32.82,32.82,0,0,0,1059,367.17h-1.91A114.57,114.57,0,0,0,942.48,481.74h0v1.94a32.85,32.85,0,0,0,32.16,32.19h2.42A115.43,115.43,0,0,0,991.09,515Z"/><path class="cls-10" d="M987.53,532.8A141.63,141.63,0,0,0,982.68,518L868,449.4A86,86,0,0,1,865.62,468L884,494.34l25,21.36,33.74,12.11,34.32,6.91Z"/><path class="cls-9" d="M987.53,532.8A141.63,141.63,0,0,0,982.68,518L868,449.4A86,86,0,0,1,865.62,468L884,494.34l25,21.36,33.74,12.11,34.32,6.91Z"/><path class="cls-10" d="M962,349.1c-1,27.08-14.1,50-29.07,51.21s-26.4-19.77-25.36-46.85,29.07-51.21,29.07-51.21S963,322,962,349.1Z"/><path class="cls-22" d="M962,349.1c-1,27.08-14.1,50-29.07,51.21s-26.4-19.77-25.36-46.85,29.07-51.21,29.07-51.21S963,322,962,349.1Z"/><path class="cls-5" d="M946.18,345.66c-.6,15.79-8.21,29.07-16.95,29.89S913.8,364,914.4,348.2s17-29.89,17-29.89S946.88,329.84,946.18,345.66Z"/><path class="cls-22" d="M1023.79,379c-19.72,18.21-28.61,43.11-19.84,55.71s31.83,7.87,51.55-10.32,19.86-55.71,19.86-55.71S1043.51,360.85,1023.79,379Z"/><path class="cls-5" d="M1023.79,379c-19.72,18.21-28.61,43.11-19.84,55.71s31.83,7.87,51.55-10.32,19.86-55.71,19.86-55.71S1043.51,360.85,1023.79,379Z"/><path class="cls-5" d="M1029.68,384c-11.51,10.63-16.69,25.17-11.58,32.46s18.6,4.62,30.11-6S1059.78,378,1059.78,378,1041.21,373.39,1029.68,384Z"/><path class="cls-10" d="M1037.91,493.42,1040,495c1.52,1.16,3.78-.39,3.75-2.42a152.5,152.5,0,0,1-.38-19.24c6.12-44-2.67-102.09-45.13-122.27s-91.9,10.32-121.11,43.36a151.13,151.13,0,0,1-14.73,12.11c-1.65,1.36-1.36,4.12.51,4.55l2.57.63L855.4,419a3,3,0,0,0-.93,3.61l7.73,15-.65-.14a2.78,2.78,0,0,0-2.91,2.65,2.74,2.74,0,0,0,.49,1.71,151.67,151.67,0,0,1,10.6,13.37,131.12,131.12,0,0,0,56.9,52.12,127.92,127.92,0,0,0,75.8,10.9,147.49,147.49,0,0,1,17-.31,2.81,2.81,0,0,0,1.72-4.84l-.56-.44,16.28-3.59a2.92,2.92,0,0,0,2.11-3Z"/><path class="cls-22" d="M1037.91,493.42,1040,495c1.52,1.16,3.78-.39,3.75-2.42a152.5,152.5,0,0,1-.38-19.24c6.12-44-2.67-102.09-45.13-122.27s-91.9,10.32-121.11,43.36a151.13,151.13,0,0,1-14.73,12.11c-1.65,1.36-1.36,4.12.51,4.55l2.57.63L855.4,419a3,3,0,0,0-.93,3.61l7.73,15-.65-.14a2.78,2.78,0,0,0-2.91,2.65,2.74,2.74,0,0,0,.49,1.71,151.67,151.67,0,0,1,10.6,13.37,131.12,131.12,0,0,0,56.9,52.12,127.92,127.92,0,0,0,75.8,10.9,147.49,147.49,0,0,1,17-.31,2.81,2.81,0,0,0,1.72-4.84l-.56-.44,16.28-3.59a2.92,2.92,0,0,0,2.11-3Z"/><path class="cls-23" d="M998.26,456.5c46.72-.92,45.54,38.15,45.51,36a152.5,152.5,0,0,1-.38-19.24c4.33-31.1,1.18-69.25-16-96.06-22-5.57-52.25-.2-66.95,54.13C955.8,448.27,978.13,456.91,998.26,456.5Z"/><path class="cls-3" d="M934.77,442.79s-5.54-9.69-3.44-12.42c1.53-2,6.59.46,8.53,1.38s7,3.29,6.49,5.74C945.67,440.93,934.77,442.79,934.77,442.79Z"/><path class="cls-24" d="M934.77,442.79s-5.54-9.69-3.44-12.42c1.53-2,6.59.46,8.53,1.38s7,3.29,6.49,5.74C945.67,440.93,934.77,442.79,934.77,442.79Z"/><path class="cls-10" d="M943.81,452.87a5.48,5.48,0,0,1-7.38-2.34,6.41,6.41,0,0,1-.45-1.17,1.83,1.83,0,0,0-2.23-1.26,5.46,5.46,0,0,1-7.37-2.35,4.88,4.88,0,0,1-.45-1.17c-.75-2.2-4.26-1.26-3.49,1A9,9,0,0,0,933.22,452a8.92,8.92,0,0,0,11.56,4.36C946.88,455.53,946,452,943.81,452.87Z"/><path class="cls-10" d="M903.28,428A84.06,84.06,0,0,0,870.73,399c-1-.51-2,1.06-.92,1.57A82.38,82.38,0,0,1,901.73,429c.63,1,2.21,0,1.55-.92Z"/><path class="cls-10" d="M901,433.93a107.85,107.85,0,0,0-40.33-24.23c-1.11-.34-1.6,1.41-.48,1.77a105.59,105.59,0,0,1,39.53,23.62c.87.8,2.15-.49,1.28-1.28Z"/><path class="cls-10" d="M983,467.55a81.8,81.8,0,0,1,41.91,6.51c1.06.49,2-1.09.92-1.55A83.54,83.54,0,0,0,983,465.73C981.79,465.85,981.79,467.67,983,467.55Z"/><path class="cls-10" d="M979.54,473.17a106,106,0,0,1,43.4,15.64c1,.63,1.89-.94.92-1.57A106.62,106.62,0,0,0,980,471.33c-1.14-.15-1.62,1.59-.48,1.74Z"/><path class="cls-10" d="M925.52,408c-3.71,8.07-9.69,13.18-13.32,11.46s-3.61-9.69,0-17.76,9.69-13.17,13.3-11.45S929.2,400,925.52,408Z"/><path class="cls-13" d="M922.9,400.14c-1.45,3.14-3.8,5.18-5.23,4.48s-1.43-3.78,0-6.95,3.8-5.19,5.23-4.51S924.36,397,922.9,400.14Z"/><path class="cls-10" d="M991.11,440.37c-3.68,8.07-9.69,13.2-13.29,11.46s-3.61-9.69,0-17.76,9.68-13.18,13.32-11.46S994.82,432.4,991.11,440.37Z"/><path class="cls-13" d="M988.5,432.57c-1.46,3.15-3.78,5.18-5.21,4.48s-1.43-3.78,0-6.95,3.8-5.18,5.23-4.51S990,429.4,988.5,432.57Z"/><g class="cls-18"><path d="M919.2,381.92a21.79,21.79,0,0,1,15.5-4.26c2.28.34,3.27-3.15,1-3.51a25.33,25.33,0,0,0-18.31,4.62c-1.87,1.36,0,4.51,1.84,3.15Z"/></g><g class="cls-18"><path d="M998.77,409.51a21.56,21.56,0,0,1,5.86,15,1.82,1.82,0,1,0,3.63,0,25.31,25.31,0,0,0-6.92-17.54c-1.6-1.72-4.17.85-2.57,2.57Z"/></g><path class="cls-25" d="M1103.07,401.76a125.95,125.95,0,1,1-125.93-126,126,126,0,0,1,125.93,126Z"/><path class="cls-9" d="M1020.35,299.71a105.54,105.54,0,0,0-20.27-7.53,3.53,3.53,0,0,0-4.33,2.5,3.65,3.65,0,0,0-.11,1.23l.54,5.91a3.49,3.49,0,0,0,3,3.15,109.4,109.4,0,0,1,17.83,4.45,3.5,3.5,0,0,0,4.51-2.07,3,3,0,0,0,.16-.59l.61-3.25A3.48,3.48,0,0,0,1020.35,299.71Z"/><path class="cls-9" d="M976.07,297.46l-1.26-3.37a6.14,6.14,0,0,0-6.13-3.9A108.51,108.51,0,0,0,887.76,461.9l-.22-.41a108.75,108.75,0,0,1,83.57-155.87,6.09,6.09,0,0,0,5-8.16Z"/><path class="cls-6" d="M992.54,526.77a125.94,125.94,0,0,1-128.4-69.3c-.8-1.62-1.55-3.29-2.28-5a3.74,3.74,0,0,0-6.44-.8,10.57,10.57,0,0,0-.7,11.26,138.44,138.44,0,0,0,137.82,74.7,11,11,0,0,0,9-6.25,3.78,3.78,0,0,0-1.75-5,3.87,3.87,0,0,0-2.27-.33C995.89,526.33,994.24,526.58,992.54,526.77Z"/><path class="cls-6" d="M982.37,551.36c-16.5-6.23-25-10.64-47.84-42.27-28.34-39.29-83.47,24.22-72.93,41.42s44.27,25.38,48.44-10l2.81.17s9.69,26.28,16.57,40.55c13.64,28.22,49.17,39.36,64.65,15.53C1000.71,586.46,1004,559.54,982.37,551.36Z"/><path class="cls-15" d="M982.37,551.36c-16.5-6.23-25-10.64-47.84-42.27-28.34-39.29-83.47,24.22-72.93,41.42s44.27,25.38,48.44-10l2.81.17s9.69,26.28,16.57,40.55c13.64,28.22,49.17,39.36,64.65,15.53C1000.71,586.46,1004,559.54,982.37,551.36Z"/><path class="cls-2" d="M982.37,551.36c23.81,9,14.9,37.18,7.1,46.58-11.27,13.61-22.29,14.53-32.24,9,10.24,9.69,22.89,10.92,38-5.28C1005.91,590.21,1010.93,552.69,982.37,551.36Z"/><path class="cls-26" d="M982.37,551.36c23.81,9,14.9,37.18,7.1,46.58-11.27,13.61-22.29,14.53-32.24,9,10.24,9.69,22.89,10.92,38-5.28C1005.91,590.21,1010.93,552.69,982.37,551.36Z"/><path class="cls-2" d="M903.67,498.87A49.79,49.79,0,0,1,909,539.56c-.94,3.34,4.05,5.52,5,2.18,4.45-15.36,3-32.6-6-46.17-2-2.9-6.3.39-4.34,3.3Z"/><g class="cls-14"><path class="cls-13" d="M903.67,498.87A49.79,49.79,0,0,1,909,539.56c-.94,3.34,4.05,5.52,5,2.18,4.45-15.36,3-32.6-6-46.17-2-2.9-6.3.39-4.34,3.3Z"/></g><path class="cls-2" d="M871.29,537.26a23.91,23.91,0,0,0-6.21,17.9,31.58,31.58,0,0,0,3,2.71,1.7,1.7,0,0,0,.7-1.57c-.46-5.52.73-12.11,4.85-16.16C875.16,538.47,873,535.56,871.29,537.26Z"/><path class="cls-2" d="M885.41,544.67a21.47,21.47,0,0,0-7.63,18.65,28.81,28.81,0,0,0,3.78,1.12,1,1,0,0,0,0-.25,17.57,17.57,0,0,1,6.08-16.66C889.4,546,887.2,543.15,885.41,544.67Z"/><g class="cls-14"><path d="M871.29,537.26a23.91,23.91,0,0,0-6.21,17.9,31.58,31.58,0,0,0,3,2.71,1.7,1.7,0,0,0,.7-1.57c-.46-5.52.73-12.11,4.85-16.16C875.16,538.47,873,535.56,871.29,537.26Z"/><path d="M885.41,544.67a21.47,21.47,0,0,0-7.63,18.65,28.81,28.81,0,0,0,3.78,1.12,1,1,0,0,0,0-.25,17.57,17.57,0,0,1,6.08-16.66C889.4,546,887.2,543.15,885.41,544.67Z"/></g><path class="cls-13" d="M968.34,557.87l16.33,6.69a35,35,0,0,1-10.1,30s-7.87.59-19.06-11C955.51,583.55,967.59,573.23,968.34,557.87Z"/><g id="Interno"><path class="cls-27" d="M970.2,576.44a1.12,1.12,0,0,1-1.29-.82c0-.08,0-.17,0-.26v-.09c0-.08,0-.16,0-.23a1.13,1.13,0,1,1,1.29,1.4Z"/><path class="cls-27" d="M970.2,579.47a1.13,1.13,0,0,1-1.31-.91l0-.16v-.09a2.77,2.77,0,0,1,.15-.49,1.11,1.11,0,0,1,1.19-.59,1.14,1.14,0,0,1,0,2.24Z"/><path class="cls-27" d="M973.77,573.94a1.13,1.13,0,0,1-2.25-.09,1.14,1.14,0,0,1,1-1.2h.22l.25.05A1.13,1.13,0,0,1,973.77,573.94Z"/><path class="cls-27" d="M976.43,575.32a1.13,1.13,0,1,1-2.26,0v0a1.13,1.13,0,1,1,2.26,0Z"/><path class="cls-27" d="M976.43,578.35a1.13,1.13,0,1,1-2.26,0h0a1.13,1.13,0,0,1,2.26,0Z"/><path class="cls-27" d="M973.78,579.9a1.13,1.13,0,1,1-2.26,0v0a1.13,1.13,0,0,1,2.26,0Z"/></g><g id="Externo"><path class="cls-28" d="M973.8,570.12a1.15,1.15,0,0,1-.89,1.07,1.13,1.13,0,0,1-1.36-1.19,1.11,1.11,0,0,1,.94-1l.07,0h.22l.15,0A1.15,1.15,0,0,1,973.8,570.12Z"/><path class="cls-28" d="M967.49,576.84a1.13,1.13,0,1,1-1.13-1.14h0a1.14,1.14,0,0,1,1.13,1.13Z"/><path class="cls-28" d="M980.08,576.84A1.13,1.13,0,1,1,979,575.7,1.12,1.12,0,0,1,980.08,576.84Z"/><path class="cls-28" d="M969.31,581.3a1.13,1.13,0,1,1-1.13-1.12h0A1.11,1.11,0,0,1,969.31,581.3Z"/><path class="cls-28" d="M978.23,572.39a1.13,1.13,0,1,1-1.13-1.13h0A1.13,1.13,0,0,1,978.23,572.39Z"/><path class="cls-28" d="M978.23,581.31a1.13,1.13,0,1,1-2.25,0v0a1.11,1.11,0,0,1,1.12-1.12,1.12,1.12,0,0,1,1.13,1.12Z"/><path class="cls-28" d="M973.8,583.6a1.13,1.13,0,1,1-1.12-1.14A1.14,1.14,0,0,1,973.8,583.6Z"/><path class="cls-28" d="M969.31,572.39a1.11,1.11,0,0,1-1.12,1.12,1.13,1.13,0,1,1,1.12-1.13Z"/></g><path class="cls-6" d="M675.18,421.19h-.9a19.62,19.62,0,0,0-10.87,3.27h-.15a162.73,162.73,0,0,0,130,293.82,8.3,8.3,0,0,0,3.92-2.28l.15-.14a8.29,8.29,0,0,0-5.16-14A149.84,149.84,0,0,1,690.85,456a21.22,21.22,0,0,0-15.67-34.81Z"/><path class="cls-15" d="M797.36,715.86l-.15.14a8.45,8.45,0,0,1-3.9,2.28,162.81,162.81,0,0,1-94-3.54,159.68,159.68,0,0,1-17.73-7.26,162.77,162.77,0,0,1-92-141l.22-15.43a162.89,162.89,0,0,1,73.54-126.56h.15a19.64,19.64,0,0,1,10.9-3.27h.89A21.19,21.19,0,0,1,690.85,456a150,150,0,0,0-22.43,157.08c1.36,3.1,2.86,6.18,4.46,9.23q3.24,6.11,7.1,12.11a148.75,148.75,0,0,0,61.71,53.75c3.1,1.48,6.23,2.81,9.4,4.05h0a150.44,150.44,0,0,0,41.18,9.69,8.28,8.28,0,0,1,5.09,14Z"/><path class="cls-11" d="M799.13,707.09a8.09,8.09,0,0,0-6.93-5.26A149.84,149.84,0,0,1,690.85,456a20.93,20.93,0,0,0,3.51-21.24,14.82,14.82,0,0,0-7.43,2.42h-.12c-61.41,40-74.49,128.74-29.24,198.16C691.12,686.86,747.27,713.19,799.13,707.09Z"/><path class="cls-29" d="M690.85,456a149.3,149.3,0,0,0-26.64,46.43c-8,3.83-20.25-42.55-17.13-66a163.69,163.69,0,0,1,16.11-12h.14a19.69,19.69,0,0,1,10.9-3.27h.9A21.2,21.2,0,0,1,690.85,456Z"/><path class="cls-29" d="M672.88,622.36a4.72,4.72,0,0,1-2.62.8,3.86,3.86,0,0,1-.68,0c-33-4.56-64.67-27.25-80.1-56.61l.22-15.43a4.84,4.84,0,0,1,4.26,2.23l1.36,2.08a4.61,4.61,0,0,1,.77,2.69C608.93,586,637.85,608,668.42,613.18,669.75,616.23,671.28,619.31,672.88,622.36Z"/><path class="cls-29" d="M751.09,692.19a4.51,4.51,0,0,1-1.43,2,93.64,93.64,0,0,1-50.38,20.54,159.68,159.68,0,0,1-17.73-7.26,4.85,4.85,0,0,1,4.34-2.18,83.77,83.77,0,0,0,55.71-17.15C744.84,689.62,747.92,691,751.09,692.19Z"/><path class="cls-2" d="M800.29,700.65c-4.36-4-7.92-1.55-10,1l1.94.24a8.29,8.29,0,0,1,5.16,14l-.15.14a8.52,8.52,0,0,1-1.94,1.48C803.19,725,807.68,707.38,800.29,700.65Z"/><g class="cls-14"><path class="cls-13" d="M800.29,700.65c-4.36-4-7.92-1.55-10,1l1.94.24a8.29,8.29,0,0,1,5.16,14l-.15.14a8.52,8.52,0,0,1-1.94,1.48C803.19,725,807.68,707.38,800.29,700.65Z"/></g><path class="cls-6" d="M852.17,613.9s27.11-95.39-21.8-79.62C776.48,551.67,818,582.46,797.7,635.6c-13.93,36.34,9.49,34.74,25.6,30.09,0,0-44.47,82.35,26.65,59.83S926.66,651,909.7,622.86,852.17,613.9,852.17,613.9Z"/><path class="cls-15" d="M852.17,613.9s27.11-95.39-21.8-79.62C776.48,551.67,818,582.46,797.7,635.6c-13.93,36.34,9.49,34.74,25.6,30.09,0,0-44.47,82.35,26.65,59.83S926.66,651,909.7,622.86,852.17,613.9,852.17,613.9Z"/><path class="cls-2" d="M852.17,613.9s40.6-19.19,57.56,9S921,702.92,850,725.52c-31.64,10.07-40.36-.71-40.31-15.72-1.55,17.7,6.28,31.82,42.17,20.39,74.63-23.74,80.57-78.29,62.77-107.84s-60.44-9.4-60.44-9.4Z"/><path class="cls-26" d="M852.17,613.9s40.6-19.19,57.56,9S921,702.92,850,725.52c-31.64,10.07-40.36-.71-40.31-15.72-1.55,17.7,6.28,31.82,42.17,20.39,74.63-23.74,80.57-78.29,62.77-107.84s-60.44-9.4-60.44-9.4Z"/><path class="cls-2" d="M852.13,609.1a135.32,135.32,0,0,1-31.2,54.12c-3.22,3.39,1.91,8.52,5.13,5.13a142.77,142.77,0,0,0,33.19-57.21c1.3-4.51-5.72-6.42-7-1.94Z"/><g class="cls-14"><path class="cls-13" d="M852.13,609.1a135.32,135.32,0,0,1-31.2,54.12c-3.22,3.39,1.91,8.52,5.13,5.13a142.77,142.77,0,0,0,33.19-57.21c1.3-4.51-5.72-6.42-7-1.94Z"/></g><path class="cls-2" d="M819.33,538.74c-36.34,18-2.86,48-21.54,96.89a49.84,49.84,0,0,0-4.19,19.74c.54,1.33,17.23,41.18,45.52-45.25C867,525.34,822.53,537.74,819.33,538.74Z"/><path class="cls-17" d="M819.33,538.74c-36.34,18-2.86,48-21.54,96.89a49.84,49.84,0,0,0-4.19,19.74c.54,1.33,17.23,41.18,45.52-45.25C867,525.34,822.53,537.74,819.33,538.74Z"/><g class="cls-18"><path class="cls-13" d="M808.82,561.48,837.37,551c2.18-.8,1.24-4.32-1-3.49L807.85,558C805.69,558.77,806.61,562.28,808.82,561.48Z"/><path class="cls-13" d="M808.82,578.63l28.55-10.54c2.18-.79,1.24-4.31-1-3.48l-28.55,10.51C805.69,575.92,806.61,579.45,808.82,578.63Z"/><path class="cls-13" d="M809.59,595.83l28.56-10.54c2.18-.8,1.23-4.31-1-3.49l-28.53,10.52C806.47,593.14,807.41,596.65,809.59,595.83Z"/><path class="cls-13" d="M809.81,614.77l23.69-8.72c2.18-.82,1.23-4.33-1-3.51l-23.69,8.72C806.66,612.08,807.6,615.59,809.81,614.77Z"/><path class="cls-13" d="M805,634.32l20.66-7.61c2.18-.82,1.24-4.33-1-3.51L804,630.83c-2.18.8-1.23,4.31,1,3.49Z"/><path class="cls-13" d="M799.27,652l20.66-7.63c2.18-.8,1.24-4.31-1-3.51l-20.66,7.63C796.12,649.24,797.07,652.75,799.27,652Z"/></g></g><g id="Camada_1" data-name="Camada 1"><text class="cls-30" transform="translate(373.48 932.7)">Space <tspan class="cls-31" x="655.64" y="0">C</tspan><tspan class="cls-32" x="790.57" y="0">a</tspan><tspan class="cls-33" x="914.16" y="0">l</tspan><tspan x="963.59" y="0">cs</tspan></text></g></svg>